<svg width="16" height="16" viewBox="0 0 16 16" fill="none" xmlns="http://www.w3.org/2000/svg">
<path fill-rule="evenodd" clip-rule="evenodd" d="M3.26798 5.89608C3.5111 3.49527 5.55684 1.66699 8.00011 1.66699C10.4434 1.66699 12.4891 3.49527 12.7322 5.89607L13.0647 9.17927C13.068 9.21201 13.0797 9.24338 13.0987 9.27042L13.7529 10.203C14.3846 11.1033 13.7321 12.3337 12.6229 12.3337H3.3771C2.26794 12.3337 1.61543 11.1033 2.24708 10.203L2.90157 9.27007C2.92054 9.24302 2.93224 9.21166 2.93555 9.17892L3.26798 5.89608Z" fill="#FF6929"/>
<path d="M10.6668 13C10.6668 13.1751 10.5979 13.3485 10.4638 13.5102C10.3298 13.672 10.1334 13.819 9.88578 13.9428C9.63816 14.0666 9.34419 14.1648 9.02065 14.2318C8.69712 14.2988 8.35035 14.3333 8.00016 14.3333C7.64997 14.3333 7.30321 14.2988 6.97967 14.2318C6.65614 14.1648 6.36217 14.0666 6.11454 13.9428C5.86692 13.819 5.6705 13.672 5.53648 13.5102C5.40247 13.3485 5.3335 13.1751 5.3335 13L8.00016 13H10.6668Z" fill="#FF6929"/>
</svg>
