<svg width="24" height="24" viewBox="0 0 24 24" fill="none" xmlns="http://www.w3.org/2000/svg">
<path d="M3.5 9.47034H5.11759V20.2543H3.5V9.47034Z" fill="#222530"/>
<path d="M15.4167 3.56449C16.5075 4.41687 16.7627 5.96318 16.0035 7.12083L14.4661 9.4654C14.4435 9.49991 14.4682 9.54574 14.5095 9.54574H17.2621C19.4937 9.54574 21.0552 11.7518 20.3133 13.8564L18.9757 18.7297C18.6716 19.5924 17.8563 20.1695 16.9416 20.1695H6.76806C6.45215 20.1695 6.19606 19.9134 6.19606 19.5975L6.19598 9.59653C6.19598 9.56345 6.20615 9.53116 6.22512 9.50405L11.5973 4.13616C12.4714 2.88639 14.2149 2.62543 15.4167 3.56449Z" fill="#222530"/>
</svg>
