<svg width="24" height="24" viewBox="0 0 24 24" fill="none" xmlns="http://www.w3.org/2000/svg">
<path d="M14.8719 11.538H12.8439L14.1899 6.40601L8.66394 12.318H10.6899L9.34594 17.45L14.8719 11.538Z" fill="#151A2C"/>
<path d="M12 20.248C10.3687 20.248 8.77399 19.7643 7.41761 18.858C6.06124 17.9517 5.00407 16.6635 4.3798 15.1564C3.75553 13.6493 3.59219 11.9909 3.91044 10.3909C4.22869 8.79096 5.01424 7.3213 6.16774 6.1678C7.32124 5.0143 8.7909 4.22875 10.3909 3.9105C11.9908 3.59225 13.6492 3.75559 15.1563 4.37986C16.6635 5.00413 17.9516 6.0613 18.8579 7.41767C19.7642 8.77405 20.248 10.3687 20.248 12C20.2453 14.1867 19.3755 16.2831 17.8293 17.8293C16.283 19.3755 14.1867 20.2454 12 20.248ZM12 5.15202C10.6456 5.15202 9.32156 5.55365 8.19541 6.30611C7.06926 7.05858 6.19154 8.12809 5.67323 9.3794C5.15492 10.6307 5.01931 12.0076 5.28354 13.336C5.54777 14.6644 6.19998 15.8846 7.15769 16.8423C8.1154 17.8 9.3356 18.4522 10.664 18.7164C11.9924 18.9807 13.3693 18.8451 14.6206 18.3267C15.8719 17.8084 16.9414 16.9307 17.6939 15.8046C18.4463 14.6784 18.848 13.3544 18.848 12C18.8458 10.1845 18.1237 8.44388 16.8399 7.16009C15.5561 5.8763 13.8155 5.15414 12 5.15202Z" fill="#151A2C"/>
<path d="M13.652 2.96802H10.454V4.22002H13.652V2.96802Z" fill="#151A2C"/>
<path d="M5.03259 6.02798L3.43359 8.81024L4.52283 9.43624L6.12183 6.65398L5.03259 6.02798Z" fill="#151A2C"/>
<path d="M3.35132 15.086L4.95032 17.8555L6.03458 17.2295L4.43558 14.46L3.35132 15.086Z" fill="#151A2C"/>
<path d="M10.348 21.032H13.546V19.78H10.348V21.032Z" fill="#151A2C"/>
<path d="M18.9969 17.9473L20.5959 15.1778L19.5117 14.5518L17.9127 17.3213L18.9969 17.9473Z" fill="#151A2C"/>
<path d="M20.647 8.91439L19.048 6.14484L17.9637 6.77084L19.5627 9.54038L20.647 8.91439Z" fill="#151A2C"/>
</svg>
