<svg width="20" height="20" viewBox="0 0 20 20" fill="none" xmlns="http://www.w3.org/2000/svg">
<path d="M11.6667 5.83203H5.83335C5.39133 5.83203 4.9674 6.00763 4.65484 6.32019C4.34228 6.63275 4.16669 7.05667 4.16669 7.4987V10.832C4.16669 11.2741 4.34228 11.698 4.65484 12.0105C4.9674 12.3231 5.39133 12.4987 5.83335 12.4987H6.66669V15.832C6.66669 16.053 6.75448 16.265 6.91076 16.4213C7.06705 16.5776 7.27901 16.6654 7.50002 16.6654H9.16669C9.3877 16.6654 9.59966 16.5776 9.75594 16.4213C9.91222 16.265 10 16.053 10 15.832V12.4987H11.6667L14.3189 14.09C14.9854 14.4899 15.8334 14.0098 15.8334 13.2325V5.09822C15.8334 4.32093 14.9854 3.84081 14.3189 4.24073L11.6667 5.83203Z" fill="#FF8754"/>
</svg>
