<svg width="24" height="24" viewBox="0 0 24 24" fill="none" xmlns="http://www.w3.org/2000/svg">
<path d="M12.244 16.05H5.93604V10.682C5.93921 9.19773 6.53022 7.77519 7.57974 6.72567C8.62926 5.67616 10.0518 5.08514 11.536 5.08197H21V11.382H13.232C12.971 11.3851 12.7215 11.4902 12.5369 11.6748C12.3522 11.8594 12.2471 12.1089 12.244 12.37V16.05ZM7.33604 14.65H10.844V12.37C10.8472 11.7376 11.0998 11.132 11.5469 10.6849C11.9941 10.2377 12.5997 9.98512 13.232 9.98197H19.6V6.47597H11.544C10.4311 6.47914 9.36465 6.92265 8.57768 7.70962C7.79072 8.49659 7.3472 9.56304 7.34404 10.676L7.33604 14.65Z" fill="#151A2C"/>
<path d="M20.998 12.23V4.08002H19.598V12.23H20.998Z" fill="#151A2C"/>
<path d="M4.97195 16.042H13.1219V14.642H4.97195V16.042Z" fill="#151A2C"/>
<path d="M11.088 4.41602L17.6021 4.41602V3.01602L11.088 3.01602V4.41602Z" fill="#151A2C"/>
<path d="M13.644 4.37201V6.37201H15.044V4.37201H13.644Z" fill="#151A2C"/>
<path d="M8.59202 17.994H7.19202V20.962H8.59202V17.994Z" fill="#151A2C"/>
<path d="M11.172 17.124H9.77197V19.046H11.172V17.124Z" fill="#151A2C"/>
</svg>
