<svg width="24" height="24" viewBox="0 0 24 24" fill="none" xmlns="http://www.w3.org/2000/svg">
<path d="M15.748 14.474L9.44603 8.172C8.87811 7.62017 8.11584 7.314 7.324 7.31969C6.53215 7.32538 5.77435 7.64246 5.21442 8.20239C4.65449 8.76232 4.33741 9.52012 4.33172 10.312C4.32603 11.1038 4.6322 11.8661 5.18403 12.434L4.19603 13.434C3.39639 12.6008 2.95513 11.4874 2.9669 10.3326C2.97868 9.17785 3.44254 8.07368 4.25901 7.25695C5.07547 6.44023 6.17949 5.97601 7.33426 5.96387C8.48903 5.95172 9.60258 6.39263 10.436 7.192L16.738 13.484L15.748 14.474Z" fill="#151A2C"/>
<path d="M12.474 14.518L8.088 10.132C7.93953 9.99192 7.74313 9.9139 7.539 9.9139C7.33488 9.9139 7.13847 9.99192 6.99 10.132C6.91727 10.2034 6.85962 10.2888 6.82045 10.3829C6.78129 10.477 6.76141 10.5781 6.762 10.68C6.7629 10.7829 6.78442 10.8846 6.8253 10.9791C6.86618 11.0736 6.92558 11.1589 7 11.23L7.036 11.27C7.17597 11.4188 7.36335 11.5142 7.566 11.54C7.78682 11.5212 7.99112 11.4154 8.134 11.246L9.116 12.246C8.91078 12.4691 8.66071 12.6462 8.38221 12.7658C8.10371 12.8854 7.80306 12.9448 7.5 12.94C6.91875 12.8958 6.37639 12.6311 5.984 12.2C5.58489 11.7901 5.36288 11.2398 5.36587 10.6677C5.36887 10.0956 5.59662 9.54767 6 9.142C6.20207 8.93984 6.442 8.77948 6.70606 8.67006C6.97013 8.56065 7.25317 8.50433 7.539 8.50433C7.82484 8.50433 8.10787 8.56065 8.37194 8.67006C8.63601 8.77948 8.87593 8.93984 9.078 9.142L13.464 13.528L12.474 14.518Z" fill="#151A2C"/>
<path d="M19.172 14.518L14.772 10.118C14.2268 9.57138 13.9199 8.83134 13.9182 8.05931C13.9166 7.28727 14.2203 6.54592 14.7632 5.99698C15.306 5.44804 16.044 5.13608 16.816 5.12915C17.588 5.12222 18.3314 5.42088 18.884 5.95998C19.4636 6.48303 19.8213 7.20781 19.884 7.98598C19.916 8.75798 19.598 9.48798 18.94 10.156L17.94 9.17398C18.314 8.79598 18.496 8.41998 18.484 8.05398C18.437 7.64945 18.2461 7.27533 17.946 6.99998L17.91 6.96598C17.7693 6.82091 17.6011 6.70529 17.4152 6.62585C17.2293 6.54641 17.0295 6.50473 16.8274 6.50325C16.6253 6.50177 16.4249 6.54052 16.2378 6.61723C16.0508 6.69394 15.881 6.80709 15.7381 6.95008C15.5952 7.09308 15.4822 7.26306 15.4057 7.45014C15.3292 7.63722 15.2906 7.83766 15.2923 8.03978C15.2939 8.24191 15.3358 8.44168 15.4154 8.62747C15.495 8.81327 15.6108 8.98136 15.756 9.12198L20.156 13.522L19.172 14.518Z" fill="#151A2C"/>
<path d="M20.022 18.674L18.022 16.674C17.9267 16.5828 17.7999 16.5319 17.668 16.5319C17.5361 16.5319 17.4093 16.5828 17.314 16.674L16.172 17.816C15.8157 18.172 15.3327 18.372 14.829 18.372C14.3254 18.372 13.8423 18.172 13.486 17.816L12.344 16.674C12.2485 16.5833 12.1218 16.5327 11.99 16.5327C11.8583 16.5327 11.7315 16.5833 11.636 16.674L10.494 17.816C10.1377 18.172 9.65468 18.372 9.15102 18.372C8.64735 18.372 8.1643 18.172 7.80802 17.816L6.66602 16.674C6.57073 16.5828 6.44392 16.5319 6.31202 16.5319C6.18012 16.5319 6.05331 16.5828 5.95802 16.674L3.96802 18.674L2.96802 17.674L4.96802 15.674C5.32464 15.3179 5.80802 15.1179 6.31202 15.1179C6.81601 15.1179 7.2994 15.3179 7.65602 15.674L8.80002 16.836C8.89521 16.9266 9.0216 16.9772 9.15302 16.9772C9.28444 16.9772 9.41083 16.9266 9.50602 16.836L10.648 15.694C11.0046 15.3379 11.488 15.1379 11.992 15.1379C12.496 15.1379 12.9794 15.3379 13.336 15.694L14.478 16.836C14.573 16.9271 14.6995 16.9779 14.831 16.9779C14.9626 16.9779 15.0891 16.9271 15.184 16.836L16.326 15.694C16.6826 15.3379 17.166 15.1379 17.67 15.1379C18.174 15.1379 18.6574 15.3379 19.014 15.694L21.014 17.694L20.022 18.674Z" fill="#151A2C"/>
</svg>
