<svg width="20" height="20" viewBox="0 0 20 20" fill="none" xmlns="http://www.w3.org/2000/svg">
<path fill-rule="evenodd" clip-rule="evenodd" d="M4.08498 7.36839C4.38887 4.36738 6.94606 2.08203 10.0001 2.08203C13.0542 2.08203 15.6114 4.36738 15.9153 7.36838L16.3309 11.4724C16.335 11.5133 16.3496 11.5525 16.3733 11.5863L17.1911 12.752C17.9807 13.8774 17.1651 15.4154 15.7786 15.4154H4.22138C2.83493 15.4154 2.01928 13.8774 2.80885 12.752L3.62696 11.5859C3.65068 11.5521 3.6653 11.5129 3.66944 11.4719L4.08498 7.36839Z" fill="#FF8754"/>
<path d="M13.3334 16.25C13.3334 16.4689 13.2471 16.6856 13.0796 16.8878C12.9121 17.09 12.6666 17.2737 12.357 17.4285C12.0475 17.5833 11.6801 17.706 11.2756 17.7898C10.8712 17.8736 10.4378 17.9167 10 17.9167C9.56228 17.9167 9.12883 17.8736 8.72441 17.7898C8.31999 17.706 7.95253 17.5833 7.643 17.4285C7.33347 17.2737 7.08794 17.09 6.92042 16.8878C6.75291 16.6856 6.66669 16.4689 6.66669 16.25L10 16.25H13.3334Z" fill="#FF8754"/>
</svg>
