<svg width="24" height="24" viewBox="0 0 24 24" fill="none" xmlns="http://www.w3.org/2000/svg">
<path d="M14.4759 20.4H9.52194C9.15128 20.3995 8.78435 20.3259 8.44216 20.1834C8.09996 20.041 7.7892 19.8325 7.52766 19.5698C7.26611 19.3071 7.05892 18.9955 6.91792 18.6527C6.77692 18.3099 6.70489 17.9427 6.70594 17.572V8.4C6.70541 7.65244 7.00174 6.93525 7.52978 6.40608C8.05783 5.87691 8.77438 5.57906 9.52194 5.578H14.4759C15.2235 5.57906 15.9401 5.87691 16.4681 6.40608C16.9962 6.93525 17.2925 7.65244 17.2919 8.4V17.572C17.293 17.9427 17.221 18.3099 17.08 18.6527C16.939 18.9955 16.7318 19.3071 16.4702 19.5698C16.2087 19.8325 15.8979 20.041 15.5557 20.1834C15.2135 20.3259 14.8466 20.3995 14.4759 20.4ZM9.52194 6.778C9.09264 6.77906 8.68131 6.95048 8.37831 7.25461C8.07531 7.55874 7.90541 7.9707 7.90594 8.4V17.572C7.90489 17.7851 7.94588 17.9963 8.02658 18.1935C8.10727 18.3907 8.22607 18.57 8.37618 18.7213C8.52629 18.8725 8.70476 18.9926 8.90137 19.0748C9.09798 19.1569 9.30887 19.1995 9.52194 19.2H14.4759C14.9046 19.1989 15.3153 19.0281 15.6182 18.7248C15.9211 18.4216 16.0914 18.0106 16.0919 17.582V8.4C16.0914 7.97139 15.9211 7.56046 15.6182 7.25719C15.3153 6.95393 14.9046 6.78306 14.4759 6.782L9.52194 6.778Z" fill="#151A2C"/>
<path d="M9.78597 16.162C9.49492 15.8716 9.264 15.5267 9.10645 15.1469C8.9489 14.7672 8.8678 14.3601 8.8678 13.949C8.8678 13.5379 8.9489 13.1308 9.10645 12.751C9.264 12.3713 9.49492 12.0264 9.78597 11.736L11.716 9.79999L12.282 10.366L10.35 12.298C9.91323 12.7352 9.66791 13.328 9.66791 13.946C9.66791 14.564 9.91323 15.1567 10.35 15.594L9.78597 16.162Z" fill="#151A2C"/>
<path d="M14.212 16.162L13.646 15.6C13.8627 15.3837 14.0347 15.1269 14.152 14.8441C14.2693 14.5613 14.3297 14.2581 14.3297 13.952C14.3297 13.6458 14.2693 13.3427 14.152 13.0599C14.0347 12.7771 13.8627 12.5202 13.646 12.304L14.212 11.738C14.503 12.0283 14.734 12.3733 14.8915 12.753C15.0491 13.1328 15.1302 13.5398 15.1302 13.951C15.1302 14.3621 15.0491 14.7692 14.8915 15.1489C14.734 15.5287 14.503 15.8736 14.212 16.164V16.162Z" fill="#151A2C"/>
<path d="M13.2239 15.174L12.6579 14.6C12.7447 14.5136 12.8136 14.4109 12.8606 14.2978C12.9075 14.1847 12.9317 14.0634 12.9317 13.941C12.9317 13.8185 12.9075 13.6973 12.8606 13.5842C12.8136 13.4711 12.7447 13.3684 12.6579 13.282L11.7159 12.338L12.2819 11.774L13.2239 12.716C13.3851 12.8767 13.513 13.0676 13.6002 13.2778C13.6874 13.488 13.7324 13.7134 13.7324 13.941C13.7324 14.1686 13.6874 14.3939 13.6002 14.6041C13.513 14.8144 13.3851 15.0053 13.2239 15.166V15.174Z" fill="#151A2C"/>
<path d="M10.774 15.174C10.6129 15.0133 10.485 14.8224 10.3978 14.6122C10.3105 14.4019 10.2656 14.1766 10.2656 13.949C10.2656 13.7214 10.3105 13.496 10.3978 13.2858C10.485 13.0756 10.6129 12.8847 10.774 12.724L11.34 13.29C11.2533 13.3764 11.1844 13.4791 11.1374 13.5922C11.0904 13.7053 11.0663 13.8265 11.0663 13.949C11.0663 14.0715 11.0904 14.1927 11.1374 14.3058C11.1844 14.4189 11.2533 14.5216 11.34 14.608L10.774 15.174Z" fill="#151A2C"/>
<path d="M15.2941 6.75H8.58606V3.16H15.2941V6.75ZM9.78606 5.55H14.0941V4.36H9.78606V5.55Z" fill="#151A2C"/>
<path d="M12.54 3.76001H11.34V6.15001H12.54V3.76001Z" fill="#151A2C"/>
<path d="M15.5681 19.748H8.43005V20.948H15.5681V19.748Z" fill="#151A2C"/>
</svg>
