<svg width="24" height="24" viewBox="0 0 24 24" fill="none" xmlns="http://www.w3.org/2000/svg">
<path d="M11.9999 20.966C10.2266 20.966 8.49315 20.4402 7.0187 19.455C5.54425 18.4698 4.39505 17.0695 3.71644 15.4311C3.03782 13.7928 2.86026 11.9901 3.20622 10.2508C3.55217 8.51159 4.4061 6.914 5.66002 5.66008C6.91394 4.40616 8.51153 3.55223 10.2508 3.20628C11.99 2.86032 13.7928 3.03788 15.4311 3.7165C17.0694 4.39511 18.4697 5.54431 19.4549 7.01876C20.4401 8.49321 20.9659 10.2267 20.9659 12C20.9633 14.3771 20.0178 16.6561 18.3369 18.337C16.6561 20.0179 14.3771 20.9634 11.9999 20.966ZM11.9999 4.434C10.5035 4.434 9.04072 4.87774 7.79649 5.7091C6.55227 6.54046 5.58252 7.72211 5.00987 9.10462C4.43721 10.4871 4.28738 12.0084 4.57932 13.4761C4.87125 14.9437 5.59185 16.2918 6.64997 17.35C7.70809 18.4081 9.05623 19.1287 10.5239 19.4206C11.9915 19.7126 13.5128 19.5627 14.8953 18.9901C16.2778 18.4174 17.4595 17.4477 18.2908 16.2034C19.1222 14.9592 19.5659 13.4964 19.5659 12C19.5638 9.99402 18.766 8.07081 17.3476 6.65237C15.9291 5.23393 14.0059 4.43612 11.9999 4.434Z" fill="#151A2C"/>
<path d="M14.58 8.35799L13.872 9.29399C13.6931 9.13717 13.4956 9.00284 13.284 8.89399C13.0893 8.79347 12.8831 8.71691 12.67 8.66599V11.38C13.4807 11.608 14.0727 11.9267 14.446 12.336C14.8274 12.7595 15.0296 13.3144 15.01 13.884C15.0182 14.1923 14.9642 14.4991 14.8511 14.786C14.7381 15.073 14.5683 15.3342 14.352 15.554C13.8966 16.0092 13.3069 16.3058 12.67 16.4V17.6H11.506V16.438C11.0009 16.3926 10.5096 16.2486 10.06 16.014C9.64108 15.7993 9.27811 15.4898 9 15.11L9.86 14.226C10.0687 14.5031 10.3313 14.735 10.632 14.908C10.9061 15.0638 11.2052 15.1708 11.516 15.224V12.328C10.89 12.1916 10.3145 11.8834 9.854 11.438C9.65205 11.2322 9.49362 10.9878 9.38813 10.7194C9.28264 10.4511 9.23226 10.1642 9.24 9.87599C9.21921 9.27871 9.4348 8.69731 9.84 8.25799C10.2856 7.8074 10.8767 7.52957 11.508 7.47399V6.39999H12.672V7.48799C13.0557 7.53834 13.4289 7.64904 13.778 7.81599C14.0706 7.95605 14.3409 8.1387 14.58 8.35799ZM10.534 9.86399C10.5232 10.1183 10.6009 10.3686 10.754 10.572C10.9582 10.7925 11.2179 10.9542 11.506 11.04V8.66199C11.2305 8.72551 10.9829 8.87633 10.8 9.09199C10.6223 9.30947 10.528 9.5832 10.534 9.86399ZM13.668 13.922C13.6748 13.6477 13.5857 13.3796 13.416 13.164C13.2156 12.9301 12.9588 12.7511 12.67 12.644V15.174C12.9573 15.1038 13.2136 14.9416 13.4 14.712C13.5783 14.4878 13.6731 14.2085 13.668 13.922Z" fill="#151A2C"/>
</svg>
