<svg width="24" height="24" viewBox="0 0 24 24" fill="none" xmlns="http://www.w3.org/2000/svg">
<path d="M8.674 3H7.474V5.57H8.674V3Z" fill="#151A2C"/>
<path d="M12.6 3H11.4V5.57H12.6V3Z" fill="#151A2C"/>
<path d="M16.526 3H15.326V5.57H16.526V3Z" fill="#151A2C"/>
<path d="M8.674 18.43H7.474V21H8.674V18.43Z" fill="#151A2C"/>
<path d="M12.6 18.43H11.4V21H12.6V18.43Z" fill="#151A2C"/>
<path d="M16.526 18.43H15.326V21H16.526V18.43Z" fill="#151A2C"/>
<path d="M5.57 15.326H3V16.526H5.57V15.326Z" fill="#151A2C"/>
<path d="M5.57 11.4H3V12.6H5.57V11.4Z" fill="#151A2C"/>
<path d="M5.57 7.474H3V8.674H5.57V7.474Z" fill="#151A2C"/>
<path d="M21.0001 15.326H18.4301V16.526H21.0001V15.326Z" fill="#151A2C"/>
<path d="M21.0001 11.4H18.4301V12.6H21.0001V11.4Z" fill="#151A2C"/>
<path d="M21.0001 7.474H18.4301V8.674H21.0001V7.474Z" fill="#151A2C"/>
<path d="M18.974 18.974H5.026V5.026H18.974V18.974ZM6.226 17.774H17.774V6.226H6.226V17.774Z" fill="#151A2C"/>
<path d="M9.11401 13.898V10.81L9.91401 10.102H11.254L12.054 10.81V13.898H11.254V12.57H9.91401V13.898H9.11401ZM11.256 11.88V10.8H9.91601V11.88H11.256Z" fill="#151A2C"/>
<path d="M14.886 10.112V10.814H14.2V13.2H14.878V13.9H12.73V13.2H13.4V10.814H12.73V10.112H14.886Z" fill="#151A2C"/>
</svg>
