<svg width="81" height="20" viewBox="0 0 81 20" fill="none" xmlns="http://www.w3.org/2000/svg">
<path d="M23.9177 0H32.1797V2.85447H27.0666V17.1806H32.5582V19.9848H23.9119L23.9177 0ZM33.8914 0H36.7868H38.4354H41.3565V19.9906H38.4354V2.81474H36.7868V19.9906H33.8914V0Z" fill="#FF6929"/>
<path d="M23.9585 0.00927734H32.2204V2.86375H27.1074V17.1898H32.599V19.9941H23.9526L23.9585 0.00927734ZM33.9322 0.00927734H36.8275H38.4762H41.3973V19.9999H38.4762V2.82402H36.8275V19.9999H33.9322V0.00927734Z" fill="#FF6929"/>
<path d="M17.4329 19.9906V0H0V19.9906H17.4329ZM3.14307 17.1806V2.85447L9.96903 4.13974V15.8462L3.14307 17.1806Z" fill="#FF6929"/>
<path d="M43.5146 0H55.2422V2.85447H53.5094V17.1806H55.2422V19.9848H43.5146V17.1806H45.1411V2.85447H43.5146V0ZM48.1884 17.1759H50.4913V2.85447H48.1884V17.1759ZM60.5293 19.9801H57.5708V0H60.5293V19.9801Z" fill="#FF6929"/>
<path d="M69.7329 17.1806V13.2535H63.4561V5.3257H76.0751V2.8311H63.4561V0H78.9249V7.98737H66.3059V10.4177H79.0909V13.2535H72.6458V17.1841H80.2745V19.9883H62.1042V17.1841L69.7329 17.1806Z" fill="#FF6929"/>
</svg>
