<svg width="24" height="24" viewBox="0 0 24 24" fill="none" xmlns="http://www.w3.org/2000/svg">
<path d="M12 20.884H11.8C10.9622 20.8446 10.1562 20.5512 9.489 20.0429C8.82183 19.5346 8.32506 18.8354 8.06465 18.0381C7.80424 17.2408 7.79251 16.3832 8.03101 15.5791C8.26951 14.7749 8.74697 14.0624 9.39998 13.536V5.71603C9.39998 5.02646 9.67391 4.36514 10.1615 3.87755C10.6491 3.38996 11.3104 3.11603 12 3.11603C12.6895 3.11603 13.3509 3.38996 13.8385 3.87755C14.3261 4.36514 14.6 5.02646 14.6 5.71603V13.536C15.2645 14.0736 15.746 14.8039 15.9783 15.6264C16.2106 16.4489 16.1823 17.3233 15.8972 18.129C15.6121 18.9348 15.0842 19.6323 14.3863 20.1257C13.6884 20.6191 12.8547 20.884 12 20.884ZM12 4.51603C11.6817 4.51603 11.3765 4.64246 11.1515 4.8675C10.9264 5.09254 10.8 5.39777 10.8 5.71603V14.264L10.488 14.464C10.1035 14.7184 9.78976 15.0661 9.57607 15.4746C9.36237 15.8831 9.25569 16.3391 9.26598 16.8C9.28567 17.4915 9.56342 18.1507 10.0446 18.6477C10.5257 19.1448 11.1755 19.4439 11.866 19.486C12.4621 19.5134 13.0507 19.3448 13.5419 19.0061C14.0332 18.6673 14.4 18.1771 14.5864 17.6102C14.7728 17.0434 14.7685 16.4311 14.5741 15.8669C14.3797 15.3028 14.006 14.8178 13.51 14.486L13.198 14.286V5.71603C13.198 5.39811 13.0718 5.09319 12.8472 4.86821C12.6226 4.64322 12.3179 4.51656 12 4.51603Z" fill="#151A2C"/>
<path d="M12 18.408C12.9455 18.408 13.712 17.6415 13.712 16.696C13.712 15.7505 12.9455 14.984 12 14.984C11.0545 14.984 10.288 15.7505 10.288 16.696C10.288 17.6415 11.0545 18.408 12 18.408Z" fill="#151A2C"/>
</svg>
