<svg width="24" height="24" viewBox="0 0 24 24" fill="none" xmlns="http://www.w3.org/2000/svg">
<path fill-rule="evenodd" clip-rule="evenodd" d="M9 11.5C10.933 11.5 12.5 9.933 12.5 8C12.5 6.067 10.933 4.5 9 4.5C7.067 4.5 5.5 6.067 5.5 8C5.5 9.933 7.067 11.5 9 11.5ZM17.5 16C17.5 16.5224 17.3638 17.026 17.1112 17.4994C19.8212 17.4698 21.9999 16.3621 21.9999 15C21.9999 13.6193 19.7613 12.5 16.9999 12.5C16.4052 12.5 15.8348 12.5519 15.3058 12.6472C16.6695 13.534 17.5 14.71 17.5 16ZM19.5 9C19.5 10.3807 18.3807 11.5 17 11.5C15.6193 11.5 14.5 10.3807 14.5 9C14.5 7.61929 15.6193 6.5 17 6.5C18.3807 6.5 19.5 7.61929 19.5 9ZM9 19.5C12.866 19.5 16 17.933 16 16C16 14.067 12.866 12.5 9 12.5C5.13401 12.5 2 14.067 2 16C2 17.933 5.13401 19.5 9 19.5Z" fill="#222530"/>
</svg>
