<svg width="24" height="24" viewBox="0 0 24 24" fill="none" xmlns="http://www.w3.org/2000/svg">
<path d="M12 16.062C11.3522 16.0615 10.7247 15.8364 10.2243 15.4252C9.72395 15.0139 9.3816 14.4419 9.25563 13.8066C9.12965 13.1712 9.22783 12.5119 9.53345 11.9408C9.83907 11.3697 10.3332 10.9223 10.9317 10.6747C11.5302 10.427 12.1961 10.3946 12.8158 10.5828C13.4356 10.771 13.9709 11.1683 14.3306 11.7069C14.6904 12.2456 14.8522 12.8922 14.7886 13.5368C14.7251 14.1814 14.44 14.784 13.982 15.242C13.7217 15.5022 13.4127 15.7086 13.0726 15.8493C12.7325 15.99 12.368 16.0623 12 16.062ZM12 11.862C11.6765 11.8643 11.3638 11.9786 11.1151 12.1853C10.8663 12.3921 10.6969 12.6786 10.6355 12.9962C10.5741 13.3138 10.6245 13.6429 10.7783 13.9274C10.9321 14.212 11.1796 14.4346 11.4789 14.5573C11.7782 14.68 12.1108 14.6953 12.42 14.6006C12.7293 14.5058 12.9963 14.3069 13.1755 14.0376C13.3547 13.7684 13.4351 13.4453 13.4031 13.1234C13.3712 12.8016 13.2287 12.5007 13 12.272C12.8691 12.1401 12.7133 12.0355 12.5416 11.9644C12.3699 11.8934 12.1858 11.8572 12 11.858V11.862Z" fill="#151A2C"/>
<path d="M18.5821 19.844L17.5821 18.844C18.688 17.738 19.4411 16.3289 19.7461 14.7949C20.0512 13.261 19.8946 11.6709 19.296 10.226C18.6975 8.78102 17.6839 7.54599 16.3834 6.67707C15.083 5.80815 13.5541 5.34437 11.9901 5.34437C10.426 5.34437 8.89712 5.80815 7.59667 6.67707C6.29622 7.54599 5.28263 8.78102 4.68407 10.226C4.08552 11.6709 3.92888 13.261 4.23397 14.7949C4.53905 16.3289 5.29216 17.738 6.39806 18.844L5.40806 19.844C4.1057 18.5421 3.21868 16.8832 2.85919 15.0771C2.49969 13.2711 2.68387 11.399 3.38842 9.69762C4.09298 7.99625 5.28626 6.54203 6.81736 5.51889C8.34845 4.49575 10.1486 3.94965 11.9901 3.94965C13.8315 3.94965 15.6317 4.49575 17.1628 5.51889C18.6939 6.54203 19.8871 7.99625 20.5917 9.69762C21.2962 11.399 21.4804 13.2711 21.1209 15.0771C20.7614 16.8832 19.8744 18.5421 18.5721 19.844H18.5821Z" fill="#151A2C"/>
<path d="M16.238 17.5L15.238 16.5C15.8826 15.8572 16.3221 15.0376 16.5006 14.1449C16.6792 13.2523 16.5889 12.3267 16.2411 11.4854C15.8933 10.6441 15.3037 9.92485 14.547 9.41881C13.7902 8.91277 12.9004 8.64265 11.99 8.64265C11.0796 8.64265 10.1897 8.91277 9.43299 9.41881C8.67624 9.92485 8.08665 10.6441 7.73888 11.4854C7.39111 12.3267 7.30079 13.2523 7.47935 14.1449C7.65792 15.0376 8.09734 15.8572 8.74199 16.5L7.75199 17.5C6.91156 16.6614 6.33882 15.5924 6.10624 14.4281C5.87367 13.2639 5.99172 12.0568 6.44546 10.9597C6.8992 9.86256 7.66823 8.92471 8.65521 8.26484C9.64219 7.60497 10.8027 7.25275 11.99 7.25275C13.1772 7.25275 14.3378 7.60497 15.3248 8.26484C16.3118 8.92471 17.0808 9.86256 17.5345 10.9597C17.9883 12.0568 18.1063 13.2639 17.8737 14.4281C17.6412 15.5924 17.0684 16.6614 16.228 17.5H16.238Z" fill="#151A2C"/>
</svg>
