<svg width="24" height="24" viewBox="0 0 24 24" fill="none" xmlns="http://www.w3.org/2000/svg">
<path d="M15.76 21.046C15.3974 21.0482 15.0396 20.9634 14.7165 20.7988C14.3934 20.6342 14.1144 20.3947 13.9029 20.1001C13.6914 19.8056 13.5535 19.4646 13.5008 19.1059C13.4481 18.7471 13.4822 18.3809 13.6 18.038L12.716 16.8C12.4579 16.8393 12.1971 16.8581 11.936 16.856C11.675 16.8516 11.4148 16.8255 11.158 16.778L10.236 18C10.3327 18.3045 10.3635 18.626 10.3262 18.9433C10.289 19.2605 10.1846 19.5662 10.02 19.84C9.82523 20.1643 9.55261 20.4348 9.22686 20.6271C8.90112 20.8194 8.53254 20.9274 8.15452 20.9414C7.7765 20.9553 7.40098 20.8747 7.06197 20.7069C6.72296 20.5391 6.43116 20.2893 6.21302 19.9803C5.99487 19.6712 5.85727 19.3127 5.81267 18.937C5.76806 18.5614 5.81787 18.1806 5.95758 17.829C6.09729 17.4775 6.32249 17.1664 6.61278 16.9238C6.90307 16.6813 7.24928 16.515 7.62005 16.44L8.25205 15.04C7.92615 14.6305 7.66943 14.1704 7.49205 13.678L5.97405 13.49C5.76197 13.7217 5.50393 13.9066 5.21639 14.033C4.92885 14.1594 4.61813 14.2244 4.30405 14.224H4.28005C3.67694 14.22 3.10012 13.9767 2.67648 13.5474C2.25283 13.1181 2.01707 12.5381 2.02105 11.935C2.02502 11.3319 2.26842 10.7551 2.69769 10.3315C3.12696 9.90781 3.70694 9.67205 4.31005 9.67603H4.34205C4.66111 9.67988 4.97574 9.75119 5.26529 9.88527C5.55483 10.0194 5.81273 10.2132 6.02205 10.454L7.54405 10.308C7.7364 9.82038 8.00658 9.36717 8.34405 8.96603L7.74405 7.56603C7.29547 7.46389 6.88842 7.2281 6.57666 6.8898C6.26489 6.55149 6.06307 6.12657 5.99785 5.67117C5.93262 5.21576 6.00706 4.75128 6.21134 4.33906C6.41561 3.92685 6.74011 3.58628 7.14198 3.36235C7.54386 3.13841 8.0042 3.04164 8.46223 3.0848C8.92026 3.12796 9.35442 3.30904 9.70738 3.60411C10.0603 3.89918 10.3155 4.29437 10.4392 4.73749C10.5628 5.18061 10.5492 5.65082 10.4 6.08603L11.29 7.33203C11.8066 7.24797 12.3338 7.25473 12.848 7.35203L13.77 6.13203C13.6316 5.69197 13.6301 5.22023 13.7658 4.77931C13.9015 4.33839 14.168 3.94912 14.5299 3.66309C14.8919 3.37706 15.3322 3.20777 15.7926 3.17767C16.2529 3.14756 16.7115 3.25806 17.1077 3.49451C17.5038 3.73097 17.8187 4.08222 18.0107 4.5017C18.2026 4.92119 18.2626 5.38912 18.1826 5.84346C18.1026 6.2978 17.8864 6.7171 17.5627 7.0458C17.2391 7.3745 16.8231 7.59708 16.37 7.68402L15.738 9.08402C16.064 9.49281 16.3207 9.95223 16.498 10.444L18.016 10.632C18.272 10.3539 18.5933 10.144 18.9508 10.0212C19.3083 9.89851 19.6908 9.86682 20.0636 9.92907C20.4365 9.99131 20.7879 10.1455 21.0862 10.3777C21.3844 10.6099 21.6201 10.9128 21.7719 11.259C21.9236 11.6052 21.9867 11.9838 21.9554 12.3605C21.9241 12.7372 21.7993 13.1001 21.5925 13.4165C21.3856 13.7328 21.1032 13.9927 20.7706 14.1724C20.4381 14.3522 20.066 14.4462 19.688 14.446H19.656C19.3369 14.4427 19.0221 14.3716 18.7325 14.2375C18.4429 14.1034 18.185 13.9093 17.976 13.668L16.456 13.8C16.2632 14.2868 15.9931 14.7393 15.656 15.14L16.256 16.54C16.568 16.6083 16.8619 16.7423 17.1181 16.933C17.3744 17.1237 17.587 17.3668 17.742 17.646C17.9354 17.9918 18.0351 18.382 18.0313 18.7781C18.0274 19.1743 17.9201 19.5625 17.7201 19.9044C17.52 20.2463 17.2341 20.5301 16.8907 20.7275C16.5472 20.9249 16.1582 21.0292 15.762 21.03L15.76 21.046ZM13.234 15.446L15 17.924L14.818 18.256C14.7056 18.4601 14.6626 18.6951 14.6954 18.9258C14.7282 19.1564 14.8352 19.3701 15.0001 19.5347C15.165 19.6992 15.379 19.8057 15.6097 19.838C15.8404 19.8703 16.0754 19.8267 16.2791 19.7139C16.4829 19.601 16.6445 19.4249 16.7394 19.2121C16.8344 18.9994 16.8576 18.7615 16.8055 18.5345C16.7535 18.3074 16.629 18.1034 16.4509 17.9532C16.2728 17.8031 16.0507 17.7149 15.818 17.702L15.442 17.684L14.258 14.884L14.532 14.6C14.9564 14.1755 15.2678 13.6516 15.438 13.076L15.552 12.688L18.576 12.4L18.776 12.722C18.8695 12.8783 19.0015 13.0081 19.1594 13.0988C19.3174 13.1895 19.4959 13.2381 19.678 13.24H19.694C19.9708 13.23 20.233 13.1135 20.4258 12.9148C20.6187 12.7161 20.7274 12.4506 20.7292 12.1737C20.731 11.8968 20.6258 11.6299 20.4355 11.4287C20.2453 11.2276 19.9846 11.1076 19.708 11.094H19.692C19.5123 11.0942 19.3356 11.1395 19.1779 11.2258C19.0203 11.3121 18.8869 11.4367 18.79 11.588L18.59 11.906L15.568 11.53L15.464 11.14C15.3091 10.5626 15.012 10.0332 14.6 9.60003L14.32 9.29803L15.578 6.53402H15.954C16.1875 6.52962 16.4131 6.44929 16.5967 6.30519C16.7804 6.16108 16.9121 5.96106 16.9719 5.7354C17.0318 5.50975 17.0164 5.27074 16.9282 5.05458C16.8401 4.83842 16.6839 4.65688 16.4833 4.53743C16.2827 4.41799 16.0487 4.36716 15.8166 4.39263C15.5846 4.4181 15.3671 4.51848 15.1972 4.67859C15.0273 4.83869 14.9142 5.0498 14.875 5.27994C14.8358 5.51007 14.8727 5.74671 14.98 5.95403L15.154 6.29003L13.324 8.70603L12.924 8.60203C12.3456 8.4395 11.7347 8.43123 11.152 8.57803L10.752 8.67203L9.00005 6.20003L9.18205 5.87003C9.29399 5.66633 9.33669 5.43177 9.30373 5.2017C9.27076 4.97162 9.16392 4.75849 8.99929 4.59442C8.83466 4.43036 8.62116 4.32424 8.39098 4.29206C8.16079 4.25988 7.92638 4.30339 7.72307 4.41602C7.51976 4.52865 7.35856 4.70431 7.26377 4.91653C7.16898 5.12875 7.14572 5.36602 7.19752 5.59261C7.24931 5.81919 7.37333 6.0228 7.55091 6.17276C7.72849 6.32272 7.94999 6.4109 8.18205 6.42403L8.55805 6.44202L9.74205 9.24202L9.45605 9.52803C9.03143 9.95312 8.71997 10.4777 8.55005 11.054L8.43605 11.442L5.42405 11.728L5.22405 11.406C5.12728 11.2466 4.99059 11.1151 4.82746 11.0246C4.66434 10.9342 4.48044 10.8878 4.29393 10.8902C4.10741 10.8926 3.92475 10.9436 3.76398 11.0382C3.60322 11.1328 3.46991 11.2677 3.37724 11.4295C3.28457 11.5914 3.23574 11.7747 3.23557 11.9612C3.23541 12.1477 3.28392 12.3311 3.37631 12.4931C3.46869 12.6551 3.60176 12.7903 3.76236 12.8851C3.92296 12.98 4.10554 13.0313 4.29205 13.034H4.30805C4.48801 13.034 4.66505 12.9886 4.82275 12.9019C4.98044 12.8152 5.11366 12.69 5.21005 12.538L5.41005 12.222L8.43205 12.6L8.53605 13C8.69265 13.575 8.98952 14.1021 9.40005 14.534L9.67805 14.828L8.42205 17.6H8.04605C7.8593 17.6051 7.67711 17.6589 7.51748 17.7559C7.35785 17.853 7.22629 17.99 7.13581 18.1534C7.04532 18.3169 6.99904 18.5011 7.00152 18.6879C7.00401 18.8747 7.05517 19.0576 7.14997 19.2186C7.24477 19.3796 7.37992 19.5131 7.54208 19.6058C7.70424 19.6986 7.88779 19.7475 8.07461 19.7476C8.26143 19.7478 8.44505 19.6992 8.60735 19.6066C8.76965 19.5141 8.905 19.3809 9.00005 19.22C9.09311 19.0632 9.14469 18.8852 9.14994 18.7029C9.15519 18.5206 9.11393 18.34 9.03005 18.178L8.85605 17.842L10.686 15.418L11.086 15.524C11.3744 15.6021 11.6713 15.6445 11.97 15.65C12.2693 15.6531 12.5676 15.6181 12.858 15.546L13.234 15.446Z" fill="#151A2C"/>
<path d="M12.21 11.248C12.5679 11.248 12.858 10.9579 12.858 10.6C12.858 10.2421 12.5679 9.95203 12.21 9.95203C11.8521 9.95203 11.562 10.2421 11.562 10.6C11.562 10.9579 11.8521 11.248 12.21 11.248Z" fill="#151A2C"/>
<path d="M13.474 13.668C13.7645 13.668 14 13.4325 14 13.142C14 12.8515 13.7645 12.616 13.474 12.616C13.1835 12.616 12.948 12.8515 12.948 13.142C12.948 13.4325 13.1835 13.668 13.474 13.668Z" fill="#151A2C"/>
<path d="M10.602 13.48C11.1311 13.48 11.56 13.0511 11.56 12.522C11.56 11.9929 11.1311 11.564 10.602 11.564C10.073 11.564 9.64404 11.9929 9.64404 12.522C9.64404 13.0511 10.073 13.48 10.602 13.48Z" fill="#151A2C"/>
</svg>
