<svg width="24" height="24" viewBox="0 0 24 24" fill="none" xmlns="http://www.w3.org/2000/svg">
<path fill-rule="evenodd" clip-rule="evenodd" d="M12 22C17.5228 22 22 17.5228 22 12C22 6.47715 17.5228 2 12 2C6.47715 2 2 6.47715 2 12C2 17.5228 6.47715 22 12 22ZM11.3 14C11.1343 14 11 13.8657 11 13.7V7.3C11 7.13431 11.1343 7 11.3 7H12.7C12.8657 7 13 7.13431 13 7.3V13.7C13 13.8657 12.8657 14 12.7 14H11.3ZM11 16.7C11 16.8657 11.1343 17 11.3 17H12.7C12.8657 17 13 16.8657 13 16.7V15.3C13 15.1343 12.8657 15 12.7 15H11.3C11.1343 15 11 15.1343 11 15.3V16.7Z" fill="#222530"/>
</svg>
