<svg width="24" height="24" viewBox="0 0 24 24" fill="none" xmlns="http://www.w3.org/2000/svg">
<path d="M16.764 15.43H7.23596V7.586H16.764V15.43ZM8.63596 14.03H15.364V8.986H8.63596V14.03Z" fill="#151A2C"/>
<path d="M7.26998 6.694L16.73 6.694V5.25L7.26998 5.25V6.694Z" fill="#151A2C"/>
<path d="M7.27203 17.834H10.254V16.39H7.27203V17.834Z" fill="#151A2C"/>
<path d="M13.746 17.834H16.728V16.39H13.746V17.834Z" fill="#151A2C"/>
<path d="M8.89598 21H9.37198C9.96955 21 10.454 20.5156 10.454 19.918V19.892C10.454 19.2944 9.96955 18.81 9.37198 18.81H8.89598C8.29841 18.81 7.81398 19.2944 7.81398 19.892V19.918C7.81398 20.5156 8.29841 21 8.89598 21Z" fill="#151A2C"/>
<path d="M14.628 21H15.104C15.7016 21 16.186 20.5156 16.186 19.918V19.892C16.186 19.2944 15.7016 18.81 15.104 18.81H14.628C14.0305 18.81 13.546 19.2944 13.546 19.892V19.918C13.546 20.5156 14.0305 21 14.628 21Z" fill="#151A2C"/>
<path d="M16.454 19.87H7.54603C6.79881 19.8695 6.08235 19.5724 5.55399 19.044C5.02562 18.5157 4.72856 17.7992 4.72803 17.052V5.83201C4.72856 5.08479 5.02562 4.36833 5.55399 3.83997C6.08235 3.3116 6.79881 3.01454 7.54603 3.01401H16.454C17.2012 3.01454 17.9177 3.3116 18.4461 3.83997C18.9744 4.36833 19.2715 5.08479 19.272 5.83201V17.052C19.2715 17.7992 18.9744 18.5157 18.4461 19.044C17.9177 19.5724 17.2012 19.8695 16.454 19.87ZM7.54603 4.21401C7.11707 4.21454 6.70583 4.38517 6.40251 4.68849C6.09919 4.99181 5.92856 5.40305 5.92803 5.83201V17.052C5.92856 17.481 6.09919 17.8922 6.40251 18.1955C6.70583 18.4988 7.11707 18.6695 7.54603 18.67H16.454C16.883 18.6695 17.2942 18.4988 17.5975 18.1955C17.9009 17.8922 18.0715 17.481 18.072 17.052V5.83201C18.0715 5.40305 17.9009 4.99181 17.5975 4.68849C17.2942 4.38517 16.883 4.21454 16.454 4.21401H7.54603Z" fill="#151A2C"/>
</svg>
