<svg width="24" height="24" viewBox="0 0 24 24" fill="none" xmlns="http://www.w3.org/2000/svg">
<path d="M12 14.022C10.9041 14.0224 9.83275 13.6978 8.9214 13.0892C8.01004 12.4806 7.29966 11.6154 6.8801 10.603C6.46054 9.59062 6.35066 8.47655 6.56436 7.40171C6.77806 6.32687 7.30574 5.33955 8.08064 4.56465C8.85554 3.78974 9.84286 3.26207 10.9177 3.04837C11.9925 2.83467 13.1066 2.94455 14.119 3.36411C15.1314 3.78367 15.9966 4.49405 16.6052 5.40541C17.2138 6.31676 17.5384 7.38814 17.538 8.48402C17.5364 9.9523 16.9524 11.36 15.9142 12.3982C14.876 13.4365 13.4683 14.0204 12 14.022ZM12 4.34402C11.1811 4.34362 10.3805 4.58609 9.6994 5.04076C9.01832 5.49543 8.48738 6.14187 8.17372 6.89832C7.86007 7.65477 7.7778 8.48725 7.93732 9.29047C8.09683 10.0937 8.49097 10.8315 9.06988 11.4107C9.64879 11.9899 10.3865 12.3844 11.1896 12.5443C11.9927 12.7042 12.8253 12.6224 13.5819 12.3091C14.3385 11.9958 14.9852 11.4651 15.4402 10.7843C15.8952 10.1034 16.138 9.30292 16.138 8.48402C16.137 7.38669 15.7007 6.33459 14.925 5.55847C14.1492 4.78236 13.0973 4.34561 12 4.34402Z" fill="#151A2C"/>
<path d="M21 21H19.6C19.6 18.498 16.12 16.384 12 16.384C7.88 16.384 4.4 18.498 4.4 21H3C3 17.682 7.036 14.984 12 14.984C16.964 14.984 21 17.682 21 21Z" fill="#151A2C"/>
<path d="M13.5 6.5V8.19035L12.4007 8.76571V9.20374H11.5755V8.39083L12.6114 7.83333V7.18108H11.3933V7.70975H10.5V6.5H13.5ZM12.4197 9.77223V10.5H11.5549V9.77223H12.4197Z" fill="#151A2C"/>
</svg>
