<svg width="24" height="24" viewBox="0 0 24 24" fill="none" xmlns="http://www.w3.org/2000/svg">
<path d="M7.24404 16.756C5.98462 15.4936 5.27734 13.7832 5.27734 12C5.27734 10.2168 5.98462 8.50642 7.24404 7.24401L11.504 2.98401L12.504 3.98401L8.23404 8.23401C7.2372 9.23386 6.67744 10.5881 6.67744 12C6.67744 13.4119 7.2372 14.7662 8.23404 15.766L7.24404 16.756Z" fill="#151A2C"/>
<path d="M12.496 21.016L11.496 20.016L15.758 15.756C16.7548 14.7561 17.3146 13.4019 17.3146 11.99C17.3146 10.5781 16.7548 9.22385 15.758 8.224L16.758 7.224C18.0174 8.48641 18.7247 10.1968 18.7247 11.98C18.7247 13.7632 18.0174 15.4736 16.758 16.736L12.496 21.016Z" fill="#151A2C"/>
<path d="M12 15.662C11.2757 15.662 10.5677 15.4472 9.96552 15.0449C9.3633 14.6425 8.89394 14.0705 8.61677 13.4014C8.3396 12.7323 8.26708 11.996 8.40838 11.2856C8.54968 10.5752 8.89845 9.92273 9.41059 9.41059C9.92273 8.89845 10.5752 8.54968 11.2856 8.40838C11.996 8.26708 12.7323 8.3396 13.4014 8.61677C14.0705 8.89394 14.6425 9.3633 15.0449 9.96552C15.4472 10.5677 15.662 11.2757 15.662 12C15.6604 12.9708 15.2741 13.9013 14.5877 14.5877C13.9013 15.2741 12.9708 15.6604 12 15.662ZM12 9.73801C11.5526 9.73801 11.1153 9.87068 10.7433 10.1192C10.3713 10.3678 10.0814 10.7211 9.9102 11.1344C9.73899 11.5477 9.6942 12.0025 9.78148 12.4413C9.86876 12.8801 10.0842 13.2831 10.4005 13.5995C10.7169 13.9158 11.1199 14.1313 11.5587 14.2186C11.9975 14.3058 12.4523 14.261 12.8656 14.0898C13.279 13.9186 13.6322 13.6287 13.8808 13.2567C14.1294 12.8847 14.262 12.4474 14.262 12C14.261 11.4004 14.0223 10.8257 13.5983 10.4017C13.1743 9.97773 12.5996 9.73907 12 9.73801Z" fill="#151A2C"/>
</svg>
