<svg width="24" height="24" viewBox="0 0 24 24" fill="none" xmlns="http://www.w3.org/2000/svg">
<path d="M19.902 20.966H4.146L12.024 12.236L19.902 20.966ZM7.302 19.566H16.752L12.024 14.326L7.302 19.566Z" fill="#151A2C"/>
<path d="M8.12396 14.57C7.09696 13.5427 6.52002 12.1496 6.52002 10.697C6.52002 9.24439 7.09696 7.85126 8.12396 6.82398L11.502 3.44598L12.502 4.43598L9.11396 7.81398C8.34954 8.57871 7.92012 9.61572 7.92012 10.697C7.92012 11.7783 8.34954 12.8153 9.11396 13.58L8.12396 14.57Z" fill="#151A2C"/>
<path d="M15.8719 14.57L14.8719 13.58C15.6354 12.8148 16.0641 11.778 16.0641 10.697C16.0641 9.61608 15.6354 8.57927 14.8719 7.81403L15.8719 6.81403C16.3815 7.32314 16.7857 7.92767 17.0615 8.59308C17.3373 9.25849 17.4792 9.97173 17.4792 10.692C17.4792 11.4123 17.3373 12.1256 17.0615 12.791C16.7857 13.4564 16.3815 14.0609 15.8719 14.57Z" fill="#151A2C"/>
<path d="M14.142 12.842L13.152 11.852C13.4581 11.5456 13.6301 11.1302 13.6301 10.697C13.6301 10.2638 13.4581 9.84839 13.152 9.54199L11.502 7.89399L12.502 6.90399L14.152 8.55199C14.7184 9.12279 15.0355 9.89489 15.0336 10.6991C15.0317 11.5032 14.7111 12.2738 14.142 12.842Z" fill="#151A2C"/>
<path d="M9.85397 12.842C9.28521 12.273 8.9657 11.5015 8.9657 10.697C8.9657 9.89251 9.28521 9.12096 9.85397 8.552L10.844 9.552C10.5378 9.8584 10.3658 10.2738 10.3658 10.707C10.3658 11.1402 10.5378 11.5556 10.844 11.862L9.85397 12.842Z" fill="#151A2C"/>
</svg>
