<svg width="24" height="24" viewBox="0 0 24 24" fill="none" xmlns="http://www.w3.org/2000/svg">
<path d="M15.692 20.888H3.02002V2.83801L8.60002 4.71801L9.23802 10.676L15.692 20.888ZM4.42002 19.488H13.15L7.88402 11.15L7.30802 5.76001L4.42002 4.78601V19.488Z" fill="#151A2C"/>
<path d="M13.7601 13.8L10.4241 10.2L10.2841 4.74799L16.9541 9.09999L13.7601 13.8ZM11.8101 9.63599L13.6001 11.552L15.0001 9.49199L11.7521 7.37999L11.8101 9.63599Z" fill="#151A2C"/>
<path d="M18.108 17.894L15.776 13.464L19 12.524L21.268 14.858L18.108 17.894ZM17.814 14.33L18.48 15.6L19.28 14.826L18.6 14.104L17.814 14.33Z" fill="#151A2C"/>
</svg>
