<svg width="16" height="16" viewBox="0 0 16 16" fill="none" xmlns="http://www.w3.org/2000/svg">
<path d="M7.99967 1.33331C5.41967 1.33331 3.33301 3.41998 3.33301 5.99998C3.33301 8.63468 5.97744 12.2138 7.285 13.8225C7.65865 14.2822 8.3407 14.2822 8.71435 13.8225C10.0219 12.2138 12.6663 8.63468 12.6663 5.99998C12.6663 3.41998 10.5797 1.33331 7.99967 1.33331ZM7.99967 7.66665C7.07967 7.66665 6.33301 6.91998 6.33301 5.99998C6.33301 5.07998 7.07967 4.33331 7.99967 4.33331C8.91967 4.33331 9.66634 5.07998 9.66634 5.99998C9.66634 6.91998 8.91967 7.66665 7.99967 7.66665Z" fill="#FF6929"/>
</svg>
