<svg width="17" height="16" viewBox="0 0 17 16" fill="none" xmlns="http://www.w3.org/2000/svg">
<path fill-rule="evenodd" clip-rule="evenodd" d="M11.8337 8.00002C11.8337 9.84097 10.3413 11.3334 8.50033 11.3334C6.65938 11.3334 5.16699 9.84097 5.16699 8.00002C5.16699 6.15907 6.65938 4.66669 8.50033 4.66669C10.3413 4.66669 11.8337 6.15907 11.8337 8.00002Z" fill="#FF6929"/>
<rect x="8.16699" y="1.33331" width="0.666667" height="2" fill="#FF6929"/>
<rect x="8.16699" y="12.6667" width="0.666667" height="2" fill="#FF6929"/>
<rect x="1.83301" y="8.33331" width="0.666666" height="2" transform="rotate(-90 1.83301 8.33331)" fill="#FF6929"/>
<rect x="13.167" y="8.33331" width="0.666666" height="2" transform="rotate(-90 13.167 8.33331)" fill="#FF6929"/>
<rect x="4.02148" y="12.9498" width="0.666667" height="2" transform="rotate(-135 4.02148 12.9498)" fill="#FF6929"/>
<rect x="12.0352" y="4.93585" width="0.666667" height="2" transform="rotate(-135 12.0352 4.93585)" fill="#FF6929"/>
<rect x="13.4502" y="12.4783" width="0.666667" height="2" transform="rotate(135 13.4502 12.4783)" fill="#FF6929"/>
<rect x="5.43555" y="4.46448" width="0.666667" height="2" transform="rotate(135 5.43555 4.46448)" fill="#FF6929"/>
</svg>
