<svg width="24" height="24" viewBox="0 0 24 24" fill="none" xmlns="http://www.w3.org/2000/svg">
<path d="M15.1 20.732L12 16.746L8.89997 20.732L9.08797 15.686L4.14997 16.746L7.53797 13L3.07397 10.64L8.07397 9.94801L6.17397 5.27201L10.45 7.95601L12 3.15601L13.55 7.95601L17.826 5.27201L15.924 9.94801L20.924 10.64L16.462 13L19.85 16.746L14.912 15.686L15.1 20.732ZM12 14.8L13.762 17.066L13.656 14.196L16.456 14.796L14.538 12.662L17.076 11.32L14.232 10.92L15.314 8.26001L12.882 9.80001L12 7.06001L11.118 9.80001L8.68598 8.26601L9.76797 10.926L6.92397 11.326L9.46198 12.668L7.53597 14.8L10.336 14.2L10.23 17.07L12 14.8Z" fill="#151A2C"/>
</svg>
