<svg width="24" height="24" viewBox="0 0 24 24" fill="none" xmlns="http://www.w3.org/2000/svg">
<path d="M20 20.47L18 18.48C17.9047 18.3888 17.7779 18.3379 17.646 18.3379C17.5141 18.3379 17.3873 18.3888 17.292 18.48L16.15 19.622C15.7935 19.9775 15.3105 20.1772 14.807 20.1772C14.3035 20.1772 13.8206 19.9775 13.464 19.622L12.334 18.48C12.2391 18.3889 12.1126 18.3381 11.981 18.3381C11.8495 18.3381 11.723 18.3889 11.628 18.48L10.486 19.622C10.1291 19.9776 9.64585 20.1773 9.14202 20.1773C8.63819 20.1773 8.1549 19.9776 7.79802 19.622L6.65602 18.48C6.56106 18.3889 6.43458 18.3381 6.30302 18.3381C6.17145 18.3381 6.04498 18.3889 5.95002 18.48L3.95002 20.47L2.96802 19.48L4.96802 17.48C5.3243 17.124 5.80735 16.924 6.31102 16.924C6.81468 16.924 7.29774 17.124 7.65402 17.48L8.79602 18.622C8.89034 18.7151 9.01751 18.7672 9.15002 18.7672C9.28252 18.7672 9.4097 18.7151 9.50402 18.622L10.646 17.48C11.0023 17.124 11.4854 16.924 11.989 16.924C12.4927 16.924 12.9757 17.124 13.332 17.48L14.474 18.622C14.5695 18.7127 14.6963 18.7633 14.828 18.7633C14.9598 18.7633 15.0865 18.7127 15.182 18.622L16.322 17.48C16.6786 17.1239 17.162 16.9238 17.666 16.9238C18.17 16.9238 18.6534 17.1239 19.01 17.48L21 19.48L20 20.47Z" fill="#151A2C"/>
<path d="M17.472 17.8H16.072V14.198L12 10.784L7.92795 14.198V17.8H6.52795V13.546L12 8.95599L17.472 13.546V17.8Z" fill="#151A2C"/>
<path d="M17.688 4.50403H16.288V8.34203H17.688V4.50403Z" fill="#151A2C"/>
<path d="M12.7 3.09198H11.3V6.92998H12.7V3.09198Z" fill="#151A2C"/>
<path d="M7.71201 5.784H6.31201V9.622H7.71201V5.784Z" fill="#151A2C"/>
</svg>
