<svg width="24" height="24" viewBox="0 0 24 24" fill="none" xmlns="http://www.w3.org/2000/svg">
<path d="M6.54753 3.40715C6.85391 3.27526 7.18927 3.22509 7.52085 3.26156C7.85308 3.29811 8.17011 3.42039 8.44083 3.61642L8.44262 3.61772C9.71134 4.54211 10.6187 5.88613 11.3181 6.92215L11.3186 6.92287C11.3972 7.03927 11.4731 7.15177 11.5467 7.25936C11.8176 7.65539 11.9335 8.13726 11.8721 8.61321C11.8108 9.08932 11.5763 9.52619 11.2135 9.84057L11.1922 9.85909L9.86266 10.8463C10.2081 11.4264 10.7208 12.1606 11.2804 12.7202C11.8439 13.283 12.6164 13.8291 13.2405 14.2111L14.0843 12.9271L14.0987 12.9079C14.4024 12.5047 14.8503 12.2346 15.3486 12.1541C15.8469 12.0737 16.357 12.1891 16.7722 12.4763C16.8475 12.5284 16.9244 12.5814 17.0026 12.6353L17.0026 12.6353C18.0648 13.3672 19.3669 14.2644 20.3431 15.514L20.3441 15.5154C20.5561 15.788 20.691 16.1126 20.7346 16.4552C20.7781 16.7975 20.729 17.1451 20.5924 17.462C19.8269 19.2467 17.8821 20.8259 15.7425 20.7472C14.4405 20.6993 10.976 20.1941 7.39061 16.6103C3.80595 13.0256 3.30154 9.56246 3.25273 8.26033C3.17492 6.12488 4.77187 4.16826 6.54753 3.40715Z" fill="#222530"/>
</svg>
