<svg width="24" height="24" viewBox="0 0 24 24" fill="none" xmlns="http://www.w3.org/2000/svg">
<path d="M18.526 18.668H5.474L6.2 11.95C6.3982 10.5513 7.09468 9.27109 8.16139 8.34489C9.22809 7.41868 10.5933 6.90869 12.006 6.90869C13.4187 6.90869 14.7839 7.41868 15.8506 8.34489C16.9173 9.27109 17.6138 10.5513 17.812 11.95V11.972L18.526 18.668ZM7.032 17.268H16.968L16.418 12.134C16.2643 11.0719 15.7332 10.1006 14.9218 9.39822C14.1104 8.69579 13.0732 8.30917 12 8.30917C10.9268 8.30917 9.88956 8.69579 9.07819 9.39822C8.26683 10.1006 7.73567 11.0719 7.582 12.134L7.032 17.268Z" fill="#151A2C"/>
<path d="M18.6945 19.5084L5.30249 19.5225L5.30396 20.9225L18.696 20.9084L18.6945 19.5084Z" fill="#151A2C"/>
<path d="M12.6845 2.99597L11.2845 3.00281L11.2997 6.10277L12.6997 6.09593L12.6845 2.99597Z" fill="#151A2C"/>
<path d="M13.0857 14.6979L10.8857 14.7086L10.9009 17.8086L13.1009 17.7978L13.0857 14.6979Z" fill="#151A2C"/>
<path d="M6.95791 4.42941L5.849 5.284L7.74131 7.73943L8.85021 6.88484L6.95791 4.42941Z" fill="#151A2C"/>
<path d="M17.0403 4.42872L15.1479 6.88416L16.2569 7.73875L18.1492 5.28331L17.0403 4.42872Z" fill="#151A2C"/>
</svg>
