<svg width="24" height="24" viewBox="0 0 24 24" fill="none" xmlns="http://www.w3.org/2000/svg">
<path d="M5.68204 19.866L4.69204 18.876L7.14405 16.422L4.19604 13.474L7.14405 10.526L4.19604 7.57799L7.64005 4.13599L8.63005 5.12599L6.17604 7.57799L9.12404 10.526L6.17604 13.474L9.12404 16.422L5.68204 19.866Z" fill="#151A2C"/>
<path d="M11.02 19.866L10.032 18.876L12.484 16.422L9.53601 13.474L12.484 10.526L9.53601 7.57799L12.98 4.13599L13.968 5.12599L11.516 7.57799L14.464 10.526L11.516 13.474L14.464 16.422L11.02 19.866Z" fill="#151A2C"/>
<path d="M16.36 19.866L15.37 18.876L17.824 16.422L14.876 13.474L17.824 10.526L14.876 7.57799L18.318 4.13599L19.308 5.12599L16.856 7.57799L19.804 10.526L16.856 13.474L19.804 16.422L16.36 19.866Z" fill="#151A2C"/>
</svg>
