<svg width="24" height="24" viewBox="0 0 24 24" fill="none" xmlns="http://www.w3.org/2000/svg">
<path d="M9.85198 13.878H8.47798L7.67798 13.256V10.744L8.47798 10.122H9.85198L10.638 10.744V11.47H9.83798V10.818H8.48198V13.182H9.84398V12.508H10.644V13.256L9.85198 13.878Z" fill="#151A2C"/>
<path d="M14.268 10.744V13.256L13.482 13.878H12.02L11.22 13.256V10.744L12.02 10.122H13.482L14.268 10.744ZM12.024 10.818V13.182H13.472V10.818H12.024Z" fill="#151A2C"/>
<path d="M16.314 13.486V13.856H14.878V13.28L15.878 12.628V12.2H15.304V12.522H14.876V12.118L15.244 11.834H15.906L16.294 12.134V12.812L15.266 13.486H16.314Z" fill="#151A2C"/>
<path d="M15.024 20.418C14.3525 20.4169 13.6991 20.2002 13.16 19.8C12.8239 19.5524 12.4174 19.4189 12 19.4189C11.5826 19.4189 11.1761 19.5524 10.84 19.8C10.3448 20.1624 9.7549 20.373 9.14216 20.4061C8.52941 20.4392 7.92026 20.2935 7.38889 19.9866C6.85751 19.6796 6.42685 19.2248 6.14936 18.6775C5.87186 18.1302 5.75951 17.514 5.82598 16.904C5.86995 16.4907 5.78125 16.0741 5.5727 15.7145C5.36415 15.3549 5.04659 15.0711 4.66598 14.904C4.10443 14.6568 3.62694 14.2516 3.2917 13.7377C2.95645 13.2238 2.77795 12.6235 2.77795 12.01C2.77795 11.3964 2.95645 10.7962 3.2917 10.2823C3.62694 9.76843 4.10443 9.3632 4.66598 9.116C5.04837 8.94841 5.36717 8.66297 5.57586 8.30137C5.78454 7.93977 5.87218 7.52093 5.82598 7.106C5.75728 6.49515 5.868 5.87752 6.14462 5.32858C6.42123 4.77964 6.85176 4.32316 7.38359 4.01492C7.91542 3.70668 8.52552 3.56004 9.13934 3.59291C9.75316 3.62577 10.3441 3.83673 10.84 4.2C11.1761 4.44755 11.5826 4.58109 12 4.58109C12.4174 4.58109 12.8239 4.44755 13.16 4.2C13.6552 3.83759 14.2451 3.627 14.8578 3.59388C15.4705 3.56075 16.0797 3.70652 16.6111 4.01343C17.1424 4.32035 17.5731 4.77515 17.8506 5.32246C18.1281 5.86978 18.2405 6.48597 18.174 7.096C18.1278 7.51093 18.2154 7.92977 18.4241 8.29137C18.6328 8.65298 18.9516 8.93841 19.334 9.106C19.8955 9.3532 20.373 9.75843 20.7083 10.2723C21.0435 10.7862 21.222 11.3864 21.222 12C21.222 12.6135 21.0435 13.2138 20.7083 13.7277C20.373 14.2416 19.8955 14.6468 19.334 14.894C18.9534 15.0611 18.6358 15.3449 18.4273 15.7045C18.2187 16.0641 18.13 16.4807 18.174 16.894C18.2452 17.5046 18.1348 18.1226 17.8566 18.6708C17.5785 19.219 17.1448 19.673 16.61 19.976C16.1295 20.2604 15.5823 20.4129 15.024 20.418ZM12 18.216C12.6721 18.2171 13.3263 18.4321 13.868 18.83C14.1755 19.055 14.5419 19.1858 14.9224 19.2062C15.303 19.2266 15.6813 19.1359 16.0111 18.9451C16.341 18.7543 16.6083 18.4717 16.7803 18.1316C16.9523 17.7915 17.0217 17.4088 16.98 17.03C16.9077 16.3627 17.0501 15.6898 17.3864 15.1089C17.7226 14.5281 18.2353 14.0696 18.85 13.8C19.2009 13.6478 19.4997 13.3963 19.7096 13.0765C19.9195 12.7567 20.0313 12.3825 20.0313 12C20.0313 11.6175 19.9195 11.2433 19.7096 10.9235C19.4997 10.6037 19.2009 10.3522 18.85 10.2C18.2346 9.9302 17.7214 9.47106 17.3851 8.8894C17.0488 8.30773 16.9068 7.63391 16.98 6.966C17.0217 6.5872 16.9523 6.20444 16.7803 5.86439C16.6083 5.52434 16.341 5.24168 16.0111 5.05088C15.6813 4.86007 15.303 4.76936 14.9224 4.7898C14.5419 4.81024 14.1755 4.94095 13.868 5.166C13.3267 5.56462 12.6722 5.77965 12 5.77965C11.3278 5.77965 10.6732 5.56462 10.132 5.166C9.82444 4.94095 9.45806 4.81024 9.07752 4.7898C8.69698 4.76936 8.31871 4.86007 7.98883 5.05088C7.65895 5.24168 7.3917 5.52434 7.21967 5.86439C7.04764 6.20444 6.97826 6.5872 7.01998 6.966C7.09313 7.63391 6.95121 8.30773 6.61487 8.8894C6.27854 9.47106 5.76534 9.9302 5.14998 10.2C4.79904 10.3522 4.50024 10.6037 4.29036 10.9235C4.08047 11.2433 3.96865 11.6175 3.96865 12C3.96865 12.3825 4.08047 12.7567 4.29036 13.0765C4.50024 13.3963 4.79904 13.6478 5.14998 13.8C5.76534 14.0698 6.27854 14.5289 6.61487 15.1106C6.95121 15.6923 7.09313 16.3661 7.01998 17.034C6.97826 17.4128 7.04764 17.7956 7.21967 18.1356C7.3917 18.4757 7.65895 18.7583 7.98883 18.9491C8.31871 19.1399 8.69698 19.2306 9.07752 19.2102C9.45806 19.1898 9.82444 19.059 10.132 18.834C10.6731 18.4347 11.3275 18.2182 12 18.216Z" fill="#151A2C"/>
</svg>
