<svg width="185" height="48" viewBox="0 0 185 48" fill="none" xmlns="http://www.w3.org/2000/svg">
<g id="*logo">
<path id="Vector" d="M54.9563 1H73.8938V7.54282H62.174V40.3801H74.7615V46.8078H54.9429L54.9563 1ZM77.8173 1H84.4539H88.2328H94.9283V46.8212H88.2328V7.45175H84.4539V46.8212H77.8173V1Z" fill="#FF6929"/>
<path id="Vector_2" d="M55.049 1.02036H73.9865V7.56317H62.2668V40.4005H74.8543V46.8281H55.0356L55.049 1.02036ZM77.9101 1.02036H84.5466H88.3256H95.021V46.8415H88.3256V7.47211H84.5466V46.8415H77.9101V1.02036Z" fill="#FF6929"/>
<path id="Vector_3" d="M40.0919 46.8212V1H0.133301V46.8212H40.0919ZM7.33764 40.3801V7.54282L22.9836 10.4888V37.3216L7.33764 40.3801Z" fill="#FF6929"/>
<path id="Vector_4" d="M99.8745 1H126.756V7.54282H122.784V40.3801H126.756V46.8078H99.8745V40.3801H103.603V7.54282H99.8745V1ZM110.587 40.3694H115.866V7.54282H110.587V40.3694ZM138.874 46.7971H132.093V1H138.874V46.7971Z" fill="#FF6929"/>
<path id="Vector_5" d="M159.971 40.3801V31.3787H145.584V13.2072H174.508V7.48925H145.584V1H181.04V19.3081H152.116V24.8787H181.42V31.3787H166.647V40.3881H184.133V46.8158H142.485V40.3881L159.971 40.3801Z" fill="#FF6929"/>
</g>
</svg>
