<svg width="24" height="24" viewBox="0 0 24 24" fill="none" xmlns="http://www.w3.org/2000/svg">
<path d="M14.882 17H9.11796L6.23596 12L9.11796 7H14.882L17.764 12L14.882 17ZM9.92596 15.6H14.074L16.148 12L14.074 8.4H9.92596L7.85196 12L9.92596 15.6Z" fill="#151A2C"/>
<path d="M16.9561 11.1L21.0001 12L16.9561 12.9V11.1Z" fill="#151A2C"/>
<path d="M7.044 12.9L3 12L7.044 11.1V12.9Z" fill="#151A2C"/>
<path d="M10.38 16.768L7.63 19.868L8.808 15.894L10.38 16.768Z" fill="#151A2C"/>
<path d="M13.62 7.23199L16.37 4.13199L15.192 8.10399L13.62 7.23199Z" fill="#151A2C"/>
<path d="M15.35 15.76L16.692 19.68L13.814 16.698L15.35 15.76Z" fill="#151A2C"/>
<path d="M8.64798 8.24001L7.30798 4.32001L10.186 7.30201L8.64798 8.24001Z" fill="#151A2C"/>
</svg>
