<svg width="24" height="24" viewBox="0 0 24 24" fill="none" xmlns="http://www.w3.org/2000/svg">
<path d="M6.00003 20.756C4.40939 19.1644 3.51587 17.0062 3.51587 14.756C3.51587 12.5058 4.40939 10.3477 6.00003 8.75602L11.504 3.24402L12.504 4.24402L6.98802 9.74202C6.32984 10.4002 5.80773 11.1816 5.45152 12.0415C5.09531 12.9015 4.91197 13.8232 4.91197 14.754C4.91197 15.6848 5.09531 16.6065 5.45152 17.4665C5.80773 18.3265 6.32984 19.1078 6.98802 19.766L6.00003 20.756Z" fill="#151A2C"/>
<path d="M18 20.756L17 19.756C17.6582 19.0978 18.1803 18.3164 18.5365 17.4565C18.8927 16.5965 19.0761 15.6748 19.0761 14.744C19.0761 13.8132 18.8927 12.8915 18.5365 12.0315C18.1803 11.1716 17.6582 10.3902 17 9.73199L18 8.73199C19.5906 10.3236 20.4842 12.4818 20.4842 14.732C20.4842 16.9822 19.5906 19.1403 18 20.732V20.756Z" fill="#151A2C"/>
<path d="M15.1999 17.952L14.2099 16.952C14.5002 16.6622 14.7305 16.318 14.8876 15.9391C15.0447 15.5603 15.1256 15.1541 15.1256 14.744C15.1256 14.3338 15.0447 13.9277 14.8876 13.5488C14.7305 13.1699 14.5002 12.8258 14.2099 12.536L11.5039 9.84198L12.5039 8.84198L15.1999 11.556C15.6208 11.9758 15.9547 12.4746 16.1826 13.0237C16.4104 13.5728 16.5277 14.1615 16.5277 14.756C16.5277 15.3505 16.4104 15.9391 16.1826 16.4882C15.9547 17.0373 15.6208 17.5361 15.1999 17.956V17.952Z" fill="#151A2C"/>
<path d="M8.79993 17.952C8.37904 17.5321 8.04512 17.0334 7.81728 16.4843C7.58944 15.9352 7.47217 15.3465 7.47217 14.752C7.47217 14.1575 7.58944 13.5688 7.81728 13.0197C8.04512 12.4706 8.37904 11.9719 8.79993 11.552L9.79993 12.542C9.50966 12.8318 9.27938 13.176 9.12226 13.5548C8.96515 13.9337 8.88427 14.3398 8.88427 14.75C8.88427 15.1602 8.96515 15.5663 9.12226 15.9452C9.27938 16.324 9.50966 16.6682 9.79993 16.958L8.79993 17.952Z" fill="#151A2C"/>
</svg>
