<svg width="26" height="26" viewBox="0 0 26 26" fill="none" xmlns="http://www.w3.org/2000/svg">
<path d="M13.0002 22.6243H12.7836C11.8759 22.5816 11.0028 22.2638 10.28 21.7132C9.55723 21.1625 9.01906 20.405 8.73695 19.5413C8.45484 18.6775 8.44213 17.7484 8.70051 16.8773C8.95888 16.0062 9.47613 15.2342 10.1836 14.664V6.19234C10.1836 5.44531 10.4803 4.72888 11.0085 4.20065C11.5368 3.67243 12.2532 3.37567 13.0002 3.37567C13.7473 3.37567 14.4637 3.67243 14.9919 4.20065C15.5201 4.72888 15.8169 5.44531 15.8169 6.19234V14.664C16.5368 15.2464 17.0584 16.0375 17.3101 16.9286C17.5618 17.8197 17.531 18.7668 17.2222 19.6397C16.9133 20.5126 16.3415 21.2683 15.5854 21.8028C14.8293 22.3373 13.9262 22.6243 13.0002 22.6243ZM13.0002 4.89234C12.6554 4.89234 12.3248 5.0293 12.081 5.2731C11.8372 5.5169 11.7002 5.84756 11.7002 6.19234V15.4527L11.3622 15.6693C10.9457 15.9449 10.6058 16.3216 10.3743 16.7641C10.1428 17.2067 10.0272 17.7007 10.0384 18.2C10.0597 18.9492 10.3606 19.6632 10.8819 20.2017C11.4031 20.7402 12.107 21.0641 12.8551 21.1098C13.5008 21.1394 14.1385 20.9568 14.6707 20.5899C15.2029 20.2229 15.6003 19.6918 15.8022 19.0777C16.0041 18.4636 15.9994 17.8003 15.7888 17.1892C15.5783 16.578 15.1734 16.0526 14.6361 15.6932L14.2981 15.4765V6.19234C14.2981 5.84793 14.1614 5.5176 13.9181 5.27386C13.6747 5.03013 13.3446 4.89291 13.0002 4.89234Z" fill="#FF6929"/>
<path d="M13.0002 19.942C14.0245 19.942 14.8548 19.1116 14.8548 18.0873C14.8548 17.063 14.0245 16.2327 13.0002 16.2327C11.9759 16.2327 11.1455 17.063 11.1455 18.0873C11.1455 19.1116 11.9759 19.942 13.0002 19.942Z" fill="#FF6929"/>
</svg>
