<svg width="24" height="24" viewBox="0 0 24 24" fill="none" xmlns="http://www.w3.org/2000/svg">
<path d="M20.022 16.57L18.022 14.57C17.9265 14.4793 17.7998 14.4287 17.668 14.4287C17.5363 14.4287 17.4096 14.4793 17.314 14.57L16.182 15.72C16.0059 15.8968 15.7966 16.037 15.5661 16.1327C15.3357 16.2284 15.0886 16.2777 14.839 16.2777C14.5895 16.2777 14.3424 16.2284 14.1119 16.1327C13.8815 16.037 13.6722 15.8968 13.496 15.72L12.354 14.578C12.2585 14.4873 12.1318 14.4367 12 14.4367C11.8683 14.4367 11.7416 14.4873 11.646 14.578L10.504 15.72C10.3279 15.8968 10.1186 16.037 9.88812 16.1327C9.65765 16.2284 9.41057 16.2777 9.16103 16.2777C8.91149 16.2777 8.6644 16.2284 8.43394 16.1327C8.20348 16.037 7.99417 15.8968 7.81803 15.72L6.67603 14.578C6.5805 14.4873 6.45378 14.4367 6.32203 14.4367C6.19027 14.4367 6.06355 14.4873 5.96803 14.578L3.97803 16.578L2.97803 15.588L4.97803 13.588C5.33465 13.2319 5.81803 13.0319 6.32203 13.0319C6.82602 13.0319 7.30941 13.2319 7.66603 13.588L8.80003 14.73C8.89475 14.8216 9.02131 14.8727 9.15303 14.8727C9.28474 14.8727 9.41131 14.8216 9.50603 14.73L10.648 13.588C11.0046 13.2319 11.488 13.0319 11.992 13.0319C12.496 13.0319 12.9794 13.2319 13.336 13.588L14.478 14.73C14.5727 14.8216 14.6993 14.8727 14.831 14.8727C14.9627 14.8727 15.0893 14.8216 15.184 14.73L16.326 13.588C16.6826 13.2319 17.166 13.0319 17.67 13.0319C18.174 13.0319 18.6574 13.2319 19.014 13.588L21.014 15.588L20.022 16.57Z" fill="#151A2C"/>
<path d="M14.642 7.22601H3.94604V8.62601H14.642V7.22601Z" fill="#151A2C"/>
<path d="M20.092 9.896H10.62V11.296H20.092V9.896Z" fill="#151A2C"/>
</svg>
