<svg width="24" height="24" viewBox="0 0 24 24" fill="none" xmlns="http://www.w3.org/2000/svg">
<path fill-rule="evenodd" clip-rule="evenodd" d="M16.2183 7.25C15.2738 6.40061 14.0893 5.85174 12.8174 5.68553C11.2794 5.48455 9.72117 5.85724 8.4405 6.73241C7.15983 7.60758 6.24646 8.92388 5.87487 10.4298C5.50329 11.9358 5.69953 13.5259 6.42611 14.8963C7.15269 16.2668 8.35869 17.3215 9.8137 17.8591C11.2687 18.3966 12.8708 18.3793 14.3138 17.8104C15.7569 17.2415 16.9398 16.1609 17.6365 14.7751C18.0731 13.9068 18.2996 12.9568 18.3086 12H19.8086C19.7996 13.189 19.5191 14.3699 18.9767 15.4488C18.1143 17.1642 16.6501 18.5017 14.864 19.2058C13.0778 19.91 11.0949 19.9315 9.29389 19.2661C7.49292 18.6008 6.00019 17.2953 5.10085 15.599C4.20152 13.9027 3.95861 11.9345 4.41855 10.0705C4.87849 8.20648 6.00902 6.57721 7.59419 5.49397C9.17935 4.41072 11.108 3.94941 13.0118 4.19818C14.4947 4.39195 15.8815 5.00597 17.0146 5.95525V4H18.5146V8.75H13.7646V7.25H16.2183Z" fill="#222530"/>
</svg>
