<svg width="24" height="24" viewBox="0 0 24 24" fill="none" xmlns="http://www.w3.org/2000/svg">
<path d="M13.586 21.02H12.186V8.04399C12.1636 7.08206 11.7658 6.16707 11.0775 5.49467C10.3892 4.82227 9.46524 4.44582 8.50304 4.44582C7.54085 4.44582 6.61684 4.82227 5.92859 5.49467C5.24033 6.16707 4.84246 7.08206 4.82004 8.04399H3.42004C3.44644 6.71335 3.99357 5.44612 4.94394 4.51442C5.89431 3.58271 7.17215 3.06082 8.50304 3.06082C9.83394 3.06082 11.1118 3.58271 12.0621 4.51442C13.0125 5.44612 13.5596 6.71335 13.586 8.04399V21.02Z" fill="#151A2C"/>
<path d="M10.816 15.868H9.41604V8.54601C9.41604 8.26965 9.30626 8.00462 9.11085 7.8092C8.91543 7.61379 8.6504 7.50401 8.37404 7.50401C8.09769 7.50401 7.83265 7.61379 7.63724 7.8092C7.44182 8.00462 7.33204 8.26965 7.33204 8.54601V8.60001C7.3205 8.87555 7.40853 9.14604 7.58004 9.36201C7.68855 9.45824 7.81526 9.53172 7.95267 9.5781C8.09009 9.62448 8.23541 9.64281 8.38004 9.63201V11.032C7.41004 11.032 6.84604 10.632 6.54404 10.304C6.12128 9.80932 5.90312 9.172 5.93404 8.52201C5.93722 7.87435 6.19756 7.25448 6.65777 6.79877C7.11799 6.34306 7.74038 6.08883 8.38804 6.09201C9.0357 6.09519 9.65557 6.35553 10.1113 6.81574C10.567 7.27595 10.8212 7.89835 10.818 8.54601L10.816 15.868Z" fill="#151A2C"/>
<path d="M16.38 21.02H14.98V13.308C14.9784 12.9403 15.0493 12.5759 15.1886 12.2356C15.3278 11.8953 15.5327 11.5857 15.7916 11.3246C16.3145 10.7972 17.0254 10.4992 17.768 10.496C18.5106 10.4928 19.2241 10.7848 19.7514 11.3076C20.2788 11.8305 20.5768 12.5414 20.58 13.284C20.6178 14.0299 20.3672 14.7618 19.88 15.328C19.378 15.874 18.67 16.154 17.772 16.16V14.76C18.262 14.76 18.624 14.63 18.852 14.388C19.0847 14.0957 19.204 13.7292 19.188 13.356V13.308C19.188 12.9367 19.0405 12.5806 18.778 12.318C18.5154 12.0555 18.1593 11.908 17.788 11.908C17.4167 11.908 17.0606 12.0555 16.7981 12.318C16.5355 12.5806 16.388 12.9367 16.388 13.308L16.38 21.02Z" fill="#151A2C"/>
<path d="M10.68 16.912H9.28003V21.02H10.68V16.912Z" fill="#151A2C"/>
</svg>
