<svg width="24" height="24" viewBox="0 0 24 24" fill="none" xmlns="http://www.w3.org/2000/svg">
<path fill-rule="evenodd" clip-rule="evenodd" d="M10.5 18.5C12.3327 18.5 14.0214 17.8838 15.3703 16.8472L20.0246 21.5016L21.5016 20.0246L16.8472 15.3702C17.8838 14.0214 18.5 12.3326 18.5 10.5C18.5 6.08172 14.9183 2.5 10.5 2.5C6.08172 2.5 2.5 6.08172 2.5 10.5C2.5 14.9183 6.08172 18.5 10.5 18.5ZM17 10.5C17 14.0899 14.0899 17 10.5 17C6.91015 17 4 14.0899 4 10.5C4 6.91015 6.91015 4 10.5 4C14.0899 4 17 6.91015 17 10.5Z" fill="#AFB3BF"/>
</svg>
