<svg width="20" height="20" viewBox="0 0 20 20" fill="none" xmlns="http://www.w3.org/2000/svg">
<path fill-rule="evenodd" clip-rule="evenodd" d="M10 18.3346C14.6024 18.3346 18.3334 14.6037 18.3334 10.0013C18.3334 5.39893 14.6024 1.66797 10 1.66797C5.39765 1.66797 1.66669 5.39893 1.66669 10.0013C1.66669 14.6037 5.39765 18.3346 10 18.3346ZM13.9584 8.9407C13.9584 10.4558 13.1434 11.3902 10.1397 14.0417C10.0604 14.1134 9.93965 14.1134 9.86031 14.0417C6.85664 11.3902 6.04169 10.4558 6.04169 8.9407C6.04169 7.67807 6.97306 6.66797 8.13728 6.66797C8.76237 6.66797 9.20776 6.91698 9.54537 7.21652C9.72337 7.37444 9.87141 7.5464 10 7.70332C10.1286 7.5464 10.2767 7.37444 10.4547 7.21652C10.7923 6.91698 11.2377 6.66797 11.8628 6.66797C13.027 6.66797 13.9584 7.67807 13.9584 8.9407Z" fill="#FF8754"/>
</svg>
