<svg width="25" height="24" viewBox="0 0 25 24" fill="none" xmlns="http://www.w3.org/2000/svg">
<path fill-rule="evenodd" clip-rule="evenodd" d="M15.0327 5.03179C14.3926 5.80483 13.3175 6.38462 12.4599 6.38462C12.3633 6.38462 12.2667 6.37254 12.2063 6.36046C12.1942 6.31214 12.1701 6.1672 12.1701 6.02225C12.1701 5.03179 12.6653 4.06548 13.2088 3.44946C13.8973 2.64018 15.0448 2.03624 15.999 2C16.0232 2.10871 16.0353 2.24158 16.0353 2.37444C16.0353 3.35283 15.6125 4.33121 15.0327 5.03179ZM10.8321 20.6399C10.4016 20.8248 9.99372 21 9.44024 21C8.25652 21 7.43516 19.9129 6.49301 18.5842C5.39383 17.014 4.5 14.5861 4.5 12.2912C4.5 8.59504 6.90369 6.63827 9.27114 6.63827C9.96213 6.63827 10.5935 6.89164 11.1549 7.11693C11.6043 7.29728 12.0089 7.45963 12.3633 7.45963C12.6707 7.45963 13.0539 7.30823 13.5004 7.13177C14.1241 6.88531 14.8715 6.58996 15.7092 6.58996C16.2406 6.58996 18.1853 6.63827 19.4657 8.47425C19.4583 8.47996 19.4427 8.49029 19.4199 8.50535C19.1048 8.71332 17.4243 9.82269 17.4243 12.0979C17.4243 14.9123 19.8764 15.9148 19.9609 15.939C19.9587 15.9444 19.9537 15.9599 19.9458 15.9845C19.8652 16.234 19.4809 17.4232 18.6564 18.6325C17.8471 19.7921 16.9895 20.9758 15.7092 20.9758C15.0781 20.9758 14.676 20.7978 14.2608 20.6139C13.8178 20.4177 13.3598 20.2149 12.5928 20.2149C11.8217 20.2149 11.3128 20.4334 10.8321 20.6399Z" fill="white"/>
</svg>
