<svg width="24" height="24" viewBox="0 0 24 24" fill="none" xmlns="http://www.w3.org/2000/svg">
<path d="M14 7H7C6.46957 7 5.96086 7.21071 5.58579 7.58579C5.21071 7.96086 5 8.46957 5 9V13C5 13.5304 5.21071 14.0391 5.58579 14.4142C5.96086 14.7893 6.46957 15 7 15H8V19C8 19.2652 8.10536 19.5196 8.29289 19.7071C8.48043 19.8946 8.73478 20 9 20H11C11.2652 20 11.5196 19.8946 11.7071 19.7071C11.8946 19.5196 12 19.2652 12 19V15H14L17.4855 17.0913C18.152 17.4912 19 17.0111 19 16.2338V5.76619C19 4.9889 18.152 4.50878 17.4855 4.9087L14 7Z" fill="#222530"/>
</svg>
