<svg width="24" height="24" viewBox="0 0 24 24" fill="none" xmlns="http://www.w3.org/2000/svg">
<path d="M3.29289 16.9596C3.10536 17.1471 3 17.4014 3 17.6667V20.0024C3 20.5547 3.44772 21.0024 4 21.0024H6.33579C6.601 21.0024 6.85536 20.8971 7.04289 20.7096L17.81 9.94244L14.06 6.19244L3.29289 16.9596ZM20.71 7.04244C20.8027 6.94993 20.8762 6.84004 20.9264 6.71907C20.9766 6.59809 21.0024 6.46841 21.0024 6.33744C21.0024 6.20648 20.9766 6.07679 20.9264 5.95582C20.8762 5.83485 20.8027 5.72496 20.71 5.63244L18.37 3.29244C18.2775 3.19974 18.1676 3.12619 18.0466 3.07601C17.9257 3.02583 17.796 3 17.665 3C17.534 3 17.4043 3.02583 17.2834 3.07601C17.1624 3.12619 17.0525 3.19974 16.96 3.29244L15.13 5.12244L18.88 8.87244L20.71 7.04244Z" fill="#222530"/>
</svg>
