<svg width="24" height="24" viewBox="0 0 24 24" fill="none" xmlns="http://www.w3.org/2000/svg">
<path d="M12 9.5C11.2043 9.5 10.4413 9.81607 9.87867 10.3787C9.31606 10.9413 8.99999 11.7044 8.99999 12.5C8.99999 13.2956 9.31606 14.0587 9.87867 14.6213C10.4413 15.1839 11.2043 15.5 12 15.5C12.7956 15.5 13.5587 15.1839 14.1213 14.6213C14.6839 14.0587 15 13.2956 15 12.5C15 11.7044 14.6839 10.9413 14.1213 10.3787C13.5587 9.81607 12.7956 9.5 12 9.5ZM12 17.5C10.6739 17.5 9.40214 16.9732 8.46446 16.0355C7.52678 15.0979 6.99999 13.8261 6.99999 12.5C6.99999 11.1739 7.52678 9.90215 8.46446 8.96447C9.40214 8.02678 10.6739 7.5 12 7.5C13.3261 7.5 14.5978 8.02678 15.5355 8.96447C16.4732 9.90215 17 11.1739 17 12.5C17 13.8261 16.4732 15.0979 15.5355 16.0355C14.5978 16.9732 13.3261 17.5 12 17.5ZM12 5C7.55981 5 3.69531 7.45258 1.67406 11.0762C1.18061 11.9608 1.18061 13.0392 1.67406 13.9238C3.69531 17.5474 7.55981 20 12 20C16.4402 20 20.3047 17.5474 22.3259 13.9238C22.8194 13.0392 22.8194 11.9608 22.3259 11.0762C20.3047 7.45258 16.4402 5 12 5Z" fill="#222530"/>
</svg>
