<svg width="24" height="24" viewBox="0 0 24 24" fill="none" xmlns="http://www.w3.org/2000/svg">
<path fill-rule="evenodd" clip-rule="evenodd" d="M12 22C17.5228 22 22 17.5228 22 12C22 6.47715 17.5228 2 12 2C6.47715 2 2 6.47715 2 12C2 17.5228 6.47715 22 12 22ZM16.75 10.7273C16.75 12.5455 15.7721 13.6667 12.1676 16.8485C12.0724 16.9345 11.9276 16.9345 11.8324 16.8485C8.22794 13.6667 7.25 12.5455 7.25 10.7273C7.25 9.21212 8.36765 8 9.76471 8C10.5148 8 11.0493 8.29882 11.4544 8.65826C11.668 8.84776 11.8457 9.05412 12 9.24242C12.1543 9.05412 12.332 8.84776 12.5456 8.65826C12.9507 8.29882 13.4852 8 14.2353 8C15.6324 8 16.75 9.21212 16.75 10.7273Z" fill="#222530"/>
</svg>
