<svg width="24" height="24" viewBox="0 0 24 24" fill="none" xmlns="http://www.w3.org/2000/svg">
<path d="M15.364 11.472H13.01L14.572 5.508L8.15198 12.378H10.508L8.94398 18.342L15.364 11.472Z" fill="#151A2C"/>
<path d="M11.9999 20.966C10.2266 20.966 8.49315 20.4402 7.0187 19.455C5.54425 18.4698 4.39505 17.0695 3.71644 15.4311C3.03782 13.7928 2.86026 11.9901 3.20622 10.2508C3.55217 8.51159 4.4061 6.914 5.66002 5.66008C6.91394 4.40616 8.51153 3.55223 10.2508 3.20628C11.99 2.86032 13.7928 3.03788 15.4311 3.7165C17.0694 4.39511 18.4697 5.54431 19.4549 7.01876C20.4401 8.49321 20.9659 10.2267 20.9659 12C20.9633 14.3771 20.0178 16.6561 18.3369 18.337C16.6561 20.0179 14.3771 20.9634 11.9999 20.966ZM11.9999 4.434C10.5035 4.434 9.04072 4.87774 7.79649 5.7091C6.55227 6.54046 5.58252 7.72211 5.00987 9.10462C4.43721 10.4871 4.28738 12.0084 4.57932 13.4761C4.87125 14.9437 5.59185 16.2918 6.64997 17.35C7.70809 18.4081 9.05623 19.1287 10.5239 19.4206C11.9915 19.7126 13.5128 19.5627 14.8953 18.9901C16.2778 18.4174 17.4595 17.4477 18.2908 16.2034C19.1222 14.9592 19.5659 13.4964 19.5659 12C19.5638 9.99402 18.766 8.07081 17.3476 6.65237C15.9291 5.23393 14.0059 4.43612 11.9999 4.434Z" fill="#151A2C"/>
<path d="M6.69161 5.70109L5.70166 6.69104L17.3109 18.3003L18.3009 17.3104L6.69161 5.70109Z" fill="#151A2C"/>
</svg>
