<svg width="24" height="24" viewBox="0 0 24 24" fill="none" xmlns="http://www.w3.org/2000/svg">
<path d="M12 12.844C11.3569 12.8454 10.7199 12.7184 10.1264 12.4705C9.53298 12.2225 8.995 11.8586 8.54403 11.4C8.02547 11.6594 7.45495 11.798 6.8752 11.8057C6.29545 11.8133 5.72148 11.6897 5.19626 11.4441C4.67105 11.1985 4.2082 10.8372 3.84236 10.3874C3.47653 9.9376 3.21719 9.41085 3.08376 8.84661C2.95033 8.28237 2.94627 7.69525 3.07188 7.12922C3.1975 6.56319 3.44953 6.0329 3.8091 5.57806C4.16868 5.12323 4.62649 4.75562 5.14826 4.50278C5.67003 4.24993 6.24223 4.11839 6.82203 4.118C7.42031 4.11721 8.01031 4.25769 8.54403 4.528C8.99616 4.07109 9.5344 3.70837 10.1276 3.46083C10.7208 3.21328 11.3572 3.08582 12 3.08582C12.6428 3.08582 13.2792 3.21328 13.8725 3.46083C14.4657 3.70837 15.0039 4.07109 15.456 4.528C15.9898 4.25769 16.5798 4.11721 17.178 4.118C17.7589 4.11712 18.3323 4.24779 18.8554 4.50022C19.3785 4.75265 19.8377 5.12027 20.1984 5.57551C20.5591 6.03075 20.812 6.56177 20.9381 7.12872C21.0643 7.69568 21.0604 8.28384 20.9267 8.84907C20.793 9.4143 20.5331 9.94191 20.1664 10.3923C19.7996 10.8427 19.3357 11.2042 18.8093 11.4497C18.2829 11.6951 17.7077 11.8182 17.127 11.8096C16.5462 11.801 15.9749 11.6609 15.456 11.4C15.0051 11.8586 14.4671 12.2225 13.8736 12.4705C13.2802 12.7184 12.6432 12.8454 12 12.844ZM8.82203 9.528L9.23803 10.074C9.56176 10.4997 9.97948 10.8447 10.4586 11.0823C10.9377 11.3199 11.4653 11.4435 12 11.4435C12.5348 11.4435 13.0624 11.3199 13.5415 11.0823C14.0206 10.8447 14.4383 10.4997 14.762 10.074L15.178 9.528L15.732 9.928C16.096 10.1957 16.5272 10.3573 16.9775 10.3947C17.4278 10.4322 17.8796 10.3441 18.2829 10.1402C18.6861 9.93627 19.0249 9.62457 19.2617 9.2397C19.4984 8.85483 19.6239 8.41186 19.624 7.96C19.6231 7.50852 19.4971 7.06613 19.2599 6.68197C19.0227 6.29782 18.6836 5.98693 18.2804 5.78386C17.8772 5.5808 17.4255 5.49349 16.9757 5.53165C16.5258 5.5698 16.0953 5.73192 15.732 6L15.178 6.4L14.762 5.86C14.4383 5.43434 14.0206 5.08926 13.5415 4.8517C13.0624 4.61415 12.5348 4.49054 12 4.49054C11.4653 4.49054 10.9377 4.61415 10.4586 4.8517C9.97948 5.08926 9.56176 5.43434 9.23803 5.86L8.82203 6.4L8.26803 6C7.90402 5.73196 7.4728 5.57012 7.02231 5.53249C6.57182 5.49486 6.11972 5.5829 5.71628 5.78684C5.31284 5.99078 4.97387 6.30262 4.73705 6.68768C4.50024 7.07275 4.37486 7.51595 4.37486 7.968C4.37486 8.42006 4.50024 8.86326 4.73705 9.24832C4.97387 9.63339 5.31284 9.94523 5.71628 10.1492C6.11972 10.3531 6.57182 10.4412 7.02231 10.4035C7.4728 10.3659 7.90402 10.2041 8.26803 9.936L8.82203 9.528Z" fill="#151A2C"/>
<path d="M14.624 14.166H3.92798V15.566H14.624V14.166Z" fill="#151A2C"/>
<path d="M20.072 16.836H10.6V18.236H20.072V16.836Z" fill="#151A2C"/>
<path d="M13.296 19.506H8.672V20.906H13.296V19.506Z" fill="#151A2C"/>
</svg>
