<svg width="24" height="24" viewBox="0 0 24 24" fill="none" xmlns="http://www.w3.org/2000/svg">
<path d="M12 19.8C10.4573 19.8 8.94921 19.3426 7.66651 18.4855C6.3838 17.6284 5.38406 16.4102 4.79369 14.9849C4.20333 13.5597 4.04886 11.9914 4.34983 10.4783C4.65079 8.96526 5.39367 7.57543 6.48452 6.48458C7.57537 5.39373 8.9652 4.65086 10.4783 4.34989C11.9913 4.04893 13.5596 4.20339 14.9849 4.79376C16.4101 5.38412 17.6283 6.38386 18.4854 7.66657C19.3425 8.94927 19.8 10.4573 19.8 12C19.8 14.0687 18.9782 16.0527 17.5154 17.5154C16.0526 18.9782 14.0686 19.8 12 19.8ZM12 5.60002C10.7342 5.60002 9.49678 5.97537 8.4443 6.67861C7.39183 7.38185 6.57153 8.38139 6.08713 9.55084C5.60272 10.7203 5.47598 12.0071 5.72293 13.2486C5.96987 14.4901 6.57941 15.6304 7.47447 16.5255C8.36953 17.4206 9.5099 18.0301 10.7514 18.277C11.9929 18.524 13.2797 18.3972 14.4491 17.9128C15.6186 17.4284 16.6181 16.6081 17.3214 15.5557C18.0246 14.5032 18.4 13.2658 18.4 12C18.4 10.3026 17.7257 8.67476 16.5254 7.47453C15.3252 6.2743 13.6973 5.60002 12 5.60002Z" fill="#151A2C"/>
<path d="M12 16.886C11.0337 16.886 10.089 16.5995 9.2855 16.0626C8.482 15.5257 7.85575 14.7626 7.48594 13.8698C7.11613 12.977 7.01937 11.9946 7.2079 11.0468C7.39643 10.099 7.86177 9.22841 8.54509 8.54509C9.22841 7.86177 10.099 7.39643 11.0468 7.2079C11.9946 7.01937 12.977 7.11613 13.8698 7.48594C14.7626 7.85575 15.5257 8.482 16.0626 9.2855C16.5995 10.089 16.886 11.0337 16.886 12C16.8844 13.2954 16.3691 14.5372 15.4532 15.4532C14.5372 16.3691 13.2954 16.8844 12 16.886ZM12 8.51402C11.3106 8.51402 10.6366 8.71847 10.0633 9.10151C9.49003 9.48456 9.04322 10.029 8.77937 10.666C8.51552 11.303 8.44649 12.0039 8.581 12.6801C8.71551 13.3563 9.04752 13.9775 9.53504 14.465C10.0226 14.9525 10.6437 15.2845 11.3199 15.419C11.9961 15.5535 12.6971 15.4845 13.3341 15.2207C13.971 14.9568 14.5155 14.51 14.8985 13.9367C15.2816 13.3635 15.486 12.6895 15.486 12C15.485 11.0758 15.1173 10.1897 14.4638 9.53621C13.8103 8.88269 12.9242 8.51507 12 8.51402Z" fill="#151A2C"/>
<path d="M12.0001 14.21C11.5649 14.21 11.1396 14.081 10.7778 13.8392C10.416 13.5975 10.134 13.2539 9.96752 12.8519C9.801 12.4499 9.75743 12.0076 9.84232 11.5808C9.92721 11.154 10.1367 10.762 10.4444 10.4544C10.7521 10.1467 11.1441 9.93716 11.5709 9.85227C11.9976 9.76738 12.44 9.81095 12.842 9.97746C13.244 10.144 13.5875 10.426 13.8293 10.7877C14.071 11.1495 14.2 11.5749 14.2 12.01C14.1964 12.5923 13.9634 13.1498 13.5516 13.5616C13.1398 13.9734 12.5824 14.2063 12.0001 14.21ZM12.0001 11.2C11.8418 11.2 11.6872 11.2469 11.5556 11.3348C11.424 11.4227 11.3215 11.5477 11.2609 11.6939C11.2004 11.84 11.1846 12.0009 11.2154 12.1561C11.2463 12.3113 11.3225 12.4538 11.4344 12.5657C11.5462 12.6776 11.6888 12.7538 11.844 12.7846C11.9992 12.8155 12.16 12.7997 12.3062 12.7391C12.4524 12.6786 12.5773 12.576 12.6652 12.4445C12.7531 12.3129 12.8001 12.1582 12.8001 12C12.797 11.7888 12.7117 11.5871 12.5623 11.4377C12.4129 11.2884 12.2113 11.2031 12.0001 11.2Z" fill="#151A2C"/>
<path d="M12.692 3H11.292V21H12.692V3Z" fill="#151A2C"/>
<path d="M20.9919 11.3H2.99194V12.7H20.9919V11.3Z" fill="#151A2C"/>
</svg>
