<svg width="24" height="24" viewBox="0 0 24 24" fill="none" xmlns="http://www.w3.org/2000/svg">
<path d="M7.54794 11.514C7.28836 11.5158 7.03402 11.4409 6.81694 11.2985C6.59986 11.1562 6.42972 10.9528 6.32794 10.714L6.04194 10.064C6.03059 10.0382 6.01125 10.0167 5.98678 10.0026C5.9623 9.98858 5.93397 9.98276 5.90594 9.986L5.19994 10.068C4.94303 10.0959 4.68355 10.0485 4.45311 9.93155C4.22267 9.81458 4.03123 9.63311 3.90213 9.40924C3.77303 9.18538 3.71183 8.92879 3.726 8.67075C3.74018 8.41272 3.8291 8.16438 3.98194 7.956L4.39994 7.384C4.4164 7.36094 4.42524 7.33332 4.42524 7.305C4.42524 7.27667 4.4164 7.24906 4.39994 7.226L3.98194 6.654C3.8291 6.44562 3.74018 6.19728 3.726 5.93924C3.71183 5.68121 3.77303 5.42462 3.90213 5.20076C4.03123 4.97689 4.22267 4.79542 4.45311 4.67845C4.68355 4.56148 4.94303 4.51407 5.19994 4.542L5.90594 4.618C5.93401 4.62157 5.96248 4.61589 5.98703 4.60181C6.01157 4.58773 6.03085 4.56603 6.04194 4.54L6.32794 3.89C6.42972 3.65119 6.59986 3.44782 6.81694 3.30547C7.03402 3.16312 7.28836 3.08815 7.54794 3.09C7.80753 3.08815 8.06187 3.16312 8.27895 3.30547C8.49603 3.44782 8.66617 3.65119 8.76794 3.89L9.05394 4.54C9.0653 4.56583 9.08463 4.58734 9.10911 4.60138C9.13359 4.61542 9.16192 4.62124 9.18994 4.618L9.89594 4.542C10.153 4.51363 10.4128 4.56071 10.6436 4.6775C10.8743 4.7943 11.0661 4.97574 11.1955 5.1997C11.3248 5.42366 11.3862 5.68043 11.3721 5.93868C11.358 6.19693 11.269 6.44548 11.1159 6.654L10.6959 7.226C10.6795 7.24906 10.6706 7.27667 10.6706 7.305C10.6706 7.33332 10.6795 7.36094 10.6959 7.384L11.1159 7.956C11.269 8.16452 11.358 8.41307 11.3721 8.67132C11.3862 8.92957 11.3248 9.18634 11.1955 9.4103C11.0661 9.63425 10.8743 9.8157 10.6436 9.9325C10.4128 10.0493 10.153 10.0964 9.89594 10.068L9.19994 10C9.17192 9.99676 9.14359 10.0026 9.11911 10.0166C9.09463 10.0307 9.0753 10.0522 9.06394 10.078L8.76794 10.72C8.66617 10.9588 8.49603 11.1622 8.27895 11.3045C8.06187 11.4469 7.80753 11.5218 7.54794 11.52V11.514ZM5.92394 8.8C6.18251 8.80049 6.4353 8.87645 6.65131 9.01856C6.86732 9.16067 7.03714 9.36275 7.13994 9.6L7.42594 10.25C7.43659 10.2734 7.45375 10.2933 7.47539 10.3072C7.49702 10.3212 7.52221 10.3286 7.54794 10.3286C7.57368 10.3286 7.59887 10.3212 7.6205 10.3072C7.64214 10.2933 7.6593 10.2734 7.66994 10.25L7.95594 9.6C8.06751 9.33805 8.2603 9.1189 8.50589 8.97485C8.75148 8.83081 9.03687 8.76951 9.31994 8.8L10.0259 8.878C10.0515 8.882 10.0777 8.87777 10.1007 8.8659C10.1237 8.85404 10.1424 8.83516 10.1539 8.812C10.1695 8.79123 10.1779 8.76596 10.1779 8.74C10.1779 8.71404 10.1695 8.68877 10.1539 8.668L9.73594 8.094C9.56754 7.86617 9.47665 7.59032 9.47665 7.307C9.47665 7.02368 9.56754 6.74783 9.73594 6.52L10.1539 5.946C10.1663 5.92547 10.1729 5.90195 10.1729 5.87797C10.1729 5.854 10.1664 5.83046 10.1541 5.8099C10.1418 5.78934 10.1241 5.77253 10.1029 5.76127C10.0817 5.75001 10.0579 5.74473 10.0339 5.746L9.32794 5.824C9.04634 5.85476 8.76226 5.79495 8.51697 5.65324C8.27169 5.51154 8.07796 5.29532 7.96394 5.036L7.67794 4.386C7.66834 4.36186 7.6514 4.34134 7.62951 4.32734C7.60762 4.31335 7.58189 4.30658 7.55594 4.308C7.53 4.30658 7.50427 4.31335 7.48238 4.32734C7.46049 4.34134 7.44354 4.36186 7.43394 4.386L7.13994 5.024C7.02644 5.28371 6.83282 5.50029 6.5874 5.64208C6.34198 5.78386 6.05763 5.8434 5.77594 5.812L5.06994 5.734C5.04438 5.73182 5.01874 5.73702 4.99605 5.74899C4.97336 5.76095 4.95458 5.77918 4.94194 5.80151C4.9293 5.82383 4.92334 5.84931 4.92476 5.87493C4.92618 5.90054 4.93492 5.92521 4.94994 5.946L5.36794 6.518C5.53635 6.74583 5.62723 7.02168 5.62723 7.305C5.62723 7.58832 5.53635 7.86417 5.36794 8.092L4.94994 8.666C4.93437 8.68677 4.92594 8.71203 4.92594 8.738C4.92594 8.76396 4.93437 8.78923 4.94994 8.81C4.96198 8.83276 4.9807 8.85129 5.00359 8.86309C5.02647 8.87489 5.05242 8.87939 5.07794 8.876L5.77594 8.8C5.82594 8.8 5.87394 8.8 5.92394 8.8Z" fill="#151A2C"/>
<path d="M16.864 14.874C16.5702 14.8739 16.2861 14.7692 16.0625 14.5786C15.839 14.388 15.6906 14.1241 15.644 13.834C15.6369 13.7867 15.6147 13.7429 15.5809 13.7091C15.5471 13.6753 15.5033 13.6532 15.456 13.646C15.2218 13.609 15.0034 13.5049 14.8271 13.3463C14.6509 13.1877 14.5244 12.9814 14.4631 12.7524C14.4017 12.5234 14.408 12.2815 14.4813 12.056C14.5546 11.8306 14.6917 11.6312 14.876 11.482C14.9137 11.4526 14.9409 11.4118 14.9535 11.3656C14.9661 11.3195 14.9635 11.2705 14.946 11.226C14.8605 11.0046 14.841 10.7632 14.8901 10.531C14.9391 10.2987 15.0544 10.0857 15.2222 9.91782C15.3899 9.7499 15.6027 9.63426 15.8349 9.58495C16.067 9.53563 16.3085 9.55476 16.53 9.64001C16.5747 9.65752 16.6237 9.66037 16.6701 9.64815C16.7165 9.63592 16.7578 9.60926 16.788 9.57201C16.9367 9.38687 17.1361 9.24898 17.3618 9.17515C17.5875 9.10133 17.8298 9.09475 18.0592 9.15623C18.2885 9.21771 18.4951 9.34458 18.6536 9.52139C18.8121 9.6982 18.9158 9.91731 18.952 10.152C18.9592 10.1993 18.9813 10.2431 19.0151 10.2769C19.0489 10.3108 19.0927 10.3329 19.14 10.34C19.3747 10.3762 19.5938 10.4799 19.7706 10.6384C19.9474 10.7969 20.0743 11.0035 20.1358 11.2328C20.1973 11.4622 20.1907 11.7045 20.1169 11.9302C20.043 12.1559 19.9051 12.3553 19.72 12.504C19.6828 12.5342 19.6561 12.5755 19.6439 12.6219C19.6316 12.6683 19.6345 12.7174 19.652 12.762C19.7373 12.9835 19.7564 13.225 19.7071 13.4571C19.6578 13.6893 19.5421 13.9021 19.3742 14.0699C19.2063 14.2376 18.9933 14.3529 18.7611 14.402C18.5288 14.451 18.2874 14.4315 18.066 14.346C18.0216 14.3287 17.9729 14.3259 17.9269 14.3381C17.8808 14.3503 17.8399 14.3769 17.81 14.414C17.6976 14.5575 17.554 14.6735 17.3901 14.7532C17.2262 14.8329 17.0463 14.8742 16.864 14.874ZM16.082 10.556C16.0531 10.5566 16.0246 10.5629 15.9982 10.5745C15.9717 10.5862 15.9479 10.603 15.928 10.624C15.8961 10.6541 15.8742 10.6932 15.8652 10.7361C15.8563 10.7791 15.8607 10.8237 15.878 10.864C15.9735 11.1067 15.9887 11.3736 15.9214 11.6256C15.8541 11.8775 15.7078 12.1013 15.504 12.264C15.4688 12.2909 15.4424 12.3276 15.428 12.3695C15.4137 12.4114 15.4121 12.4566 15.4234 12.4994C15.4348 12.5422 15.4586 12.5807 15.4918 12.61C15.525 12.6393 15.5661 12.6581 15.61 12.664C15.8675 12.7033 16.1058 12.8238 16.29 13.008C16.4742 13.1922 16.5948 13.4305 16.634 13.688C16.639 13.7313 16.6573 13.772 16.6862 13.8046C16.7152 13.8372 16.7536 13.86 16.796 13.87C16.8381 13.883 16.8831 13.8826 16.925 13.869C16.9669 13.8554 17.0036 13.8292 17.03 13.794C17.1927 13.5902 17.4165 13.4439 17.6685 13.3766C17.9204 13.3093 18.1873 13.3245 18.43 13.42C18.4707 13.4361 18.5153 13.4399 18.5581 13.4309C18.601 13.4219 18.6403 13.4006 18.6711 13.3695C18.702 13.3384 18.7231 13.299 18.7317 13.2561C18.7404 13.2132 18.7363 13.1686 18.72 13.128C18.6244 12.8852 18.6094 12.618 18.6771 12.366C18.7447 12.1139 18.8916 11.8903 19.096 11.728C19.1303 11.7007 19.1559 11.6639 19.1697 11.6223C19.1835 11.5806 19.1848 11.5358 19.1736 11.4934C19.1623 11.451 19.139 11.4128 19.1064 11.3834C19.0738 11.354 19.0334 11.3348 18.99 11.328C18.7323 11.2891 18.4939 11.1686 18.3096 10.9844C18.1254 10.8001 18.0049 10.5617 17.966 10.304C17.9603 10.2606 17.9416 10.22 17.9123 10.1875C17.883 10.155 17.8446 10.1322 17.802 10.122C17.7599 10.1096 17.715 10.1103 17.6733 10.1238C17.6315 10.1374 17.5948 10.1633 17.568 10.198C17.4053 10.4018 17.1815 10.5481 16.9295 10.6154C16.6776 10.6827 16.4107 10.6675 16.168 10.572C16.1406 10.5613 16.1114 10.5558 16.082 10.556Z" fill="#151A2C"/>
<path d="M9.67405 20.706C9.59371 20.7051 9.51378 20.6943 9.43605 20.674C9.26666 20.6304 9.11397 20.5376 8.99723 20.4073C8.88049 20.277 8.80492 20.1151 8.78005 19.942C8.77648 19.9212 8.76643 19.9021 8.75135 19.8874C8.73626 19.8727 8.71691 19.8631 8.69605 19.86C8.52143 19.8349 8.35805 19.759 8.22621 19.6418C8.09437 19.5246 7.99988 19.3712 7.95449 19.2007C7.9091 19.0303 7.91482 18.8502 7.97092 18.6829C8.02702 18.5157 8.13104 18.3686 8.27005 18.26C8.28648 18.2466 8.29824 18.2284 8.30363 18.2079C8.30902 18.1874 8.30777 18.1657 8.30005 18.146C8.24212 17.9843 8.23166 17.8094 8.2699 17.642C8.30815 17.4746 8.3935 17.3216 8.51588 17.2011C8.63827 17.0806 8.79258 16.9976 8.96058 16.962C9.12859 16.9264 9.30329 16.9396 9.46405 17C9.48378 17.0077 9.50545 17.009 9.52594 17.0036C9.54643 16.9982 9.56467 16.9864 9.57805 16.97C9.68667 16.831 9.83375 16.727 10.001 16.6709C10.1683 16.6148 10.3483 16.6091 10.5188 16.6544C10.6892 16.6998 10.8426 16.7943 10.9598 16.9262C11.077 17.058 11.1529 17.2214 11.178 17.396C11.1812 17.4166 11.1909 17.4357 11.2056 17.4504C11.2204 17.4652 11.2394 17.4748 11.26 17.478C11.4348 17.5028 11.5984 17.5785 11.7305 17.6955C11.8626 17.8126 11.9574 17.966 12.003 18.1365C12.0486 18.307 12.0431 18.4872 11.9871 18.6546C11.9311 18.822 11.8271 18.9692 11.688 19.078C11.6718 19.0915 11.66 19.1096 11.6542 19.13C11.6485 19.1504 11.6492 19.172 11.656 19.192C11.7189 19.3546 11.7332 19.532 11.6972 19.7026C11.6611 19.8732 11.5763 20.0297 11.453 20.153C11.3297 20.2762 11.1733 20.3611 11.0027 20.3971C10.8321 20.4332 10.6547 20.4189 10.492 20.356C10.4727 20.3481 10.4512 20.3468 10.431 20.3522C10.4108 20.3576 10.3929 20.3695 10.38 20.386C10.2942 20.4892 10.1861 20.5717 10.0638 20.6271C9.94152 20.6825 9.80826 20.7095 9.67405 20.706ZM9.13605 17.73C9.12327 17.7301 9.11065 17.7328 9.09896 17.738C9.08727 17.7432 9.07675 17.7506 9.06805 17.76C9.05365 17.7731 9.04376 17.7904 9.03981 17.8094C9.03585 17.8285 9.03804 17.8483 9.04605 17.866C9.11573 18.0439 9.12672 18.2394 9.07743 18.424C9.02814 18.6085 8.92114 18.7725 8.77205 18.892C8.75599 18.9034 8.74403 18.9197 8.73791 18.9384C8.73179 18.9571 8.73184 18.9773 8.73805 18.996C8.74241 19.0147 8.75242 19.0317 8.76672 19.0446C8.78103 19.0575 8.79895 19.0656 8.81805 19.068C9.00727 19.0966 9.18236 19.185 9.31768 19.3204C9.453 19.4557 9.54144 19.6308 9.57005 19.82C9.57213 19.8392 9.58021 19.8573 9.59313 19.8716C9.60605 19.886 9.62317 19.8959 9.64205 19.9C9.66056 19.9061 9.68052 19.9063 9.69915 19.9006C9.71778 19.8948 9.73417 19.8835 9.74605 19.868C9.86628 19.7199 10.0306 19.6141 10.2151 19.5659C10.3997 19.5177 10.5948 19.5297 10.772 19.6C10.7898 19.6077 10.8096 19.6097 10.8285 19.6058C10.8475 19.6019 10.8648 19.5921 10.878 19.578C10.8924 19.5649 10.9023 19.5476 10.9063 19.5286C10.9102 19.5095 10.9081 19.4897 10.9 19.472C10.8311 19.2935 10.8206 19.0977 10.8703 18.9129C10.9199 18.7282 11.027 18.5639 11.176 18.444C11.1911 18.432 11.2024 18.4159 11.2084 18.3976C11.2144 18.3793 11.2148 18.3597 11.2097 18.3411C11.2046 18.3225 11.1941 18.3059 11.1796 18.2932C11.1651 18.2806 11.1471 18.2725 11.128 18.27C10.9394 18.2404 10.7651 18.1516 10.6303 18.0164C10.4955 17.8812 10.4071 17.7067 10.378 17.518C10.3754 17.4985 10.3669 17.4802 10.3537 17.4656C10.3405 17.451 10.3232 17.4406 10.304 17.436C10.2856 17.4306 10.2659 17.4309 10.2477 17.437C10.2295 17.4431 10.2135 17.4546 10.202 17.47C10.0828 17.6194 9.91896 17.7268 9.73437 17.7765C9.54978 17.8261 9.35414 17.8155 9.17605 17.746C9.16401 17.7379 9.15037 17.7324 9.13605 17.73Z" fill="#151A2C"/>
</svg>
