<svg width="24" height="24" viewBox="0 0 24 24" fill="none" xmlns="http://www.w3.org/2000/svg">
<path fill-rule="evenodd" clip-rule="evenodd" d="M4.90198 8.84363C5.26665 5.24242 8.33527 2.5 12.0002 2.5C15.6651 2.5 18.7337 5.24242 19.0983 8.84362L19.597 13.7684C19.602 13.8175 19.6196 13.8646 19.648 13.9051L20.6294 15.3039C21.5769 16.6545 20.5981 18.5 18.9343 18.5H5.06565C3.40191 18.5 2.42314 16.6545 3.37063 15.3039L4.35235 13.9046C4.38081 13.864 4.39836 13.817 4.40333 13.7679L4.90198 8.84363Z" fill="#222530"/>
<path d="M16 19.5C16 19.7626 15.8965 20.0227 15.6955 20.2654C15.4945 20.508 15.1999 20.7285 14.8284 20.9142C14.457 21.0999 14.016 21.2472 13.5307 21.3478C13.0454 21.4483 12.5253 21.5 12 21.5C11.4747 21.5 10.9546 21.4483 10.4693 21.3478C9.98396 21.2472 9.54301 21.0999 9.17157 20.9142C8.80014 20.7285 8.5055 20.508 8.30448 20.2654C8.10346 20.0227 8 19.7626 8 19.5L12 19.5H16Z" fill="#222530"/>
</svg>
