<svg width="83" height="82" viewBox="0 0 83 82" fill="none" xmlns="http://www.w3.org/2000/svg">
<path fill-rule="evenodd" clip-rule="evenodd" d="M41.4999 75.1654C60.3696 75.1654 75.6666 59.8684 75.6666 40.9987C75.6666 22.129 60.3696 6.83203 41.4999 6.83203C22.6302 6.83203 7.33325 22.129 7.33325 40.9987C7.33325 59.8684 22.6302 75.1654 41.4999 75.1654ZM38.3832 47.832C38.2176 47.832 38.0833 47.6977 38.0833 47.532V24.2154C38.0833 24.0497 38.2176 23.9154 38.3832 23.9154H44.6166C44.7823 23.9154 44.9166 24.0497 44.9166 24.2154V47.532C44.9166 47.6977 44.7823 47.832 44.6166 47.832H38.3832ZM38.0833 57.782C38.0833 57.9477 38.2176 58.082 38.3832 58.082H44.6166C44.7823 58.082 44.9166 57.9477 44.9166 57.782V51.5487C44.9166 51.383 44.7823 51.2487 44.6166 51.2487H38.3832C38.2176 51.2487 38.0833 51.383 38.0833 51.5487V57.782Z" fill="#E4E5EA"/>
</svg>
