<svg width="16" height="16" viewBox="0 0 16 16" fill="none" xmlns="http://www.w3.org/2000/svg">
<path d="M2.33301 6.31358H3.4114V13.5029H2.33301V6.31358Z" fill="#8B90A1"/>
<path d="M10.277 2.37633C11.0042 2.94458 11.1743 3.97545 10.6683 4.74722L9.64331 6.31027C9.62822 6.33327 9.64472 6.36383 9.67223 6.36383H11.5073C12.995 6.36383 14.036 7.83452 13.5414 9.23762L12.6497 12.4864C12.447 13.0616 11.9034 13.4463 11.2936 13.4463H4.51127C4.30066 13.4463 4.12993 13.2756 4.12993 13.065L4.12988 6.39769C4.12988 6.37563 4.13666 6.35411 4.1493 6.33604L7.73074 2.75744C8.3135 1.92426 9.47585 1.75029 10.277 2.37633Z" fill="#8B90A1"/>
</svg>
