<svg width="16" height="16" viewBox="0 0 16 16" fill="none" xmlns="http://www.w3.org/2000/svg">
<path d="M7.99967 1.3335C5.41967 1.3335 3.33301 3.42016 3.33301 6.00016C3.33301 8.63486 5.97744 12.214 7.285 13.8227C7.65865 14.2824 8.3407 14.2824 8.71435 13.8227C10.0219 12.214 12.6663 8.63486 12.6663 6.00016C12.6663 3.42016 10.5797 1.3335 7.99967 1.3335ZM7.99967 7.66683C7.07967 7.66683 6.33301 6.92016 6.33301 6.00016C6.33301 5.08016 7.07967 4.3335 7.99967 4.3335C8.91967 4.3335 9.66634 5.08016 9.66634 6.00016C9.66634 6.92016 8.91967 7.66683 7.99967 7.66683Z" fill="white"/>
</svg>
