<svg width="24" height="24" viewBox="0 0 24 24" fill="none" xmlns="http://www.w3.org/2000/svg">
<path fill-rule="evenodd" clip-rule="evenodd" d="M5.50011 17.0838V18.5H7.8168L10.3797 15.9371L8.51325 14.0707L5.50011 17.0838ZM4.00011 16.4707V19C4.00011 19.5523 4.44783 20 5.00011 20H19.0001C19.5524 20 20.0001 19.5523 20.0001 19V5C20.0001 4.44772 19.5524 4 19.0001 4H5.00011C4.44783 4 4.00011 4.44772 4.00011 5V16.4707ZM5.50011 14.9705L7.80614 12.6645C8.19667 12.2739 8.82983 12.2739 9.22036 12.6645L11.4363 14.8805L14.7931 11.5237C15.1836 11.1332 15.8168 11.1332 16.2073 11.5237L18.5001 13.8165V5.5H5.50011V14.9705ZM18.5001 18.5H9.72758L15.5002 12.7274L18.5001 15.7273V18.5Z" fill="#222530"/>
</svg>
